<svg width="101" height="68" viewBox="0 0 101 68" fill="none" xmlns="http://www.w3.org/2000/svg">
<path d="M44.9852 3.304L2.7131 52.5999C2.01184 53.4096 1.45524 54.3729 1.0754 55.4342C0.695562 56.4955 0.5 57.6339 0.5 58.7837C0.5 59.9335 0.695562 61.0718 1.0754 62.1332C1.45524 63.1945 2.01184 64.1578 2.7131 64.9675C4.1149 66.5896 6.01118 67.5001 7.98776 67.5001C9.96434 67.5001 11.8606 66.5896 13.2624 64.9675L50.6713 21.8553L87.7062 64.9675C89.108 66.5896 91.0042 67.5001 92.9808 67.5001C94.9574 67.5001 96.8537 66.5896 98.2555 64.9675C98.9624 64.1608 99.5248 63.1989 99.9101 62.1374C100.295 61.076 100.496 59.936 100.5 58.7837C100.496 57.6314 100.295 56.4914 99.9101 55.43C99.5248 54.3685 98.9624 53.4066 98.2555 52.5999L55.9834 3.304C55.2828 2.41994 54.4325 1.7144 53.486 1.23183C52.5396 0.749257 51.5175 0.50012 50.4843 0.50012C49.451 0.50012 48.429 0.749257 47.4826 1.23183C46.5361 1.7144 45.6858 2.41994 44.9852 3.304Z" fill="black"/>
</svg>
