<svg width="101" height="68" viewBox="0 0 101 68" fill="none" xmlns="http://www.w3.org/2000/svg">
<path d="M56.0148 64.6962L98.2869 15.4003C98.9882 14.5907 99.5448 13.6274 99.9246 12.566C100.304 11.5047 100.5 10.3663 100.5 9.21655C100.5 8.06679 100.304 6.92841 99.9246 5.86707C99.5448 4.80573 98.9882 3.84245 98.2869 3.03279C96.8851 1.41063 94.9888 0.500122 93.0122 0.500122C91.0357 0.500122 89.1394 1.41063 87.7376 3.03279L50.3287 46.1449L13.2938 3.03279C11.892 1.41063 9.99577 0.500122 8.01919 0.500122C6.04261 0.500122 4.14634 1.41063 2.74453 3.03279C2.03759 3.83942 1.47518 4.80134 1.0899 5.86282C0.704609 6.92429 0.504109 8.06422 0.5 9.21655C0.504109 10.3689 0.704609 11.5088 1.0899 12.5703C1.47518 13.6318 2.03759 14.5937 2.74453 15.4003L45.0166 64.6962C45.7172 65.5803 46.5675 66.2858 47.514 66.7684C48.4604 67.251 49.4825 67.5001 50.5157 67.5001C51.549 67.5001 52.571 67.251 53.5174 66.7684C54.4639 66.2858 55.3142 65.5803 56.0148 64.6962Z" fill="black"/>
</svg>
