<svg xmlns="http://www.w3.org/2000/svg" xmlns:xlink="http://www.w3.org/1999/xlink" width="57" height="57" viewBox="0 0 57 57"><defs><style>.cls-1{fill:url(#Безымянный_градиент_24);}.cls-2{fill:#fff;}</style><linearGradient id="Безымянный_градиент_24" x1="28.5" y1="57" x2="28.5" gradientUnits="userSpaceOnUse"><stop offset="0" stop-color="#dbcc33"/><stop offset="1" stop-color="#00b87d"/></linearGradient></defs><title>gps (2)</title><g id="Слой_2" data-name="Слой 2"><g id="gps"><path class="cls-1" d="M57,39.25v2c0,.57,0,1.15,0,1.72a24.49,24.49,0,0,1-.33,3.72,12.79,12.79,0,0,1-1.18,3.55,12.13,12.13,0,0,1-5.27,5.21,12.89,12.89,0,0,1-3.59,1.16,25,25,0,0,1-3.77.33c-2.41,0-3.1,0-3.78,0H18c-2.64,0-3.22,0-3.79,0a25,25,0,0,1-3.77-.33,12.89,12.89,0,0,1-3.59-1.16,12.13,12.13,0,0,1-5.27-5.21A12.79,12.79,0,0,1,.36,46.72,25.84,25.84,0,0,1,0,43c0-.57,0-1.15,0-1.72s0-1.35,0-2V17.75c0-.68,0-1.36,0-2S0,14.58,0,14a25.84,25.84,0,0,1,.33-3.72A12.79,12.79,0,0,1,1.54,6.73a12,12,0,0,1,5.27-5.2A12.59,12.59,0,0,1,10.4.36,25,25,0,0,1,14.17,0c2.41,0,3.1,0,3.78,0h21.1c2.63,0,3.21,0,3.78,0A25,25,0,0,1,46.6.36a12.59,12.59,0,0,1,3.59,1.17,11.93,11.93,0,0,1,3.05,2.19,12.15,12.15,0,0,1,2.22,3,12.79,12.79,0,0,1,1.18,3.55A24.49,24.49,0,0,1,57,14c0,.57,0,1.15,0,1.72V39.25Z"/><g id="Слой_2-2" data-name="Слой 2"><path class="cls-2" d="M28.5,8.87A13.68,13.68,0,0,0,16.86,29.74L27.72,47.25a1.16,1.16,0,0,0,1,.54h0a1.17,1.17,0,0,0,1-.56L40.25,29.56A13.68,13.68,0,0,0,28.5,8.87Zm9.8,19.52L28.67,44.46,18.8,28.54a11.41,11.41,0,1,1,19.5-.15Z"/><path class="cls-2" d="M28.5,15.71a6.84,6.84,0,1,0,6.84,6.84A6.85,6.85,0,0,0,28.5,15.71Zm0,11.42a4.58,4.58,0,1,1,4.57-4.58A4.59,4.59,0,0,1,28.5,27.13Z"/></g></g></g></svg>