<?xml version="1.0" standalone="no"?>
  <!DOCTYPE svg PUBLIC "-//W3C//DTD SVG 1.1//EN" "http://www.w3.org/Graphics/SVG/1.1/DTD/svg11.dtd" >
  <svg>
  <metadata>
  Created by font-carrier
  </metadata>
  <defs>
  <font id="FuturaMediumC" horiz-adv-x="1200" vert-adv-y="1200" >
    <font-face
      
      font-family="FuturaMediumC"
      
      font-weight="400"
      
      font-stretch="normal"
      
      units-per-em="1000"
      
      ascent="729"
      
      descent="-229"
      
    />
      <missing-glyph />

      

      
      <glyph glyph-name="uni21" unicode="&#x21;" d="M175 149L77 149L77 667L175 667L175 149M83.50 5.50Q83.50 5.50 74.75 14.25Q66 23 66 48Q66 73 83.50 90.50Q101 108 126 108Q151 108 168.50 90.50Q186 73 186 48Q186 23 168.50 5.50Q151-12 126-12Q101-12 83.50 5.50Z"  horiz-adv-x="252" vert-adv-y="1000"  />

      
      <glyph glyph-name="uni22" unicode="&#x22;" d="M156 667L138 399L66 399L48 667L156 667M318 667L300 399L228 399L210 667L318 667Z"  horiz-adv-x="366" vert-adv-y="1000"  />

      
      <glyph glyph-name="uni23" unicode="&#x23;" d="M407 0L309 0L340 196L226 196L195 0L97 0L128 196L20 196L34 284L142 284L160 396L52 396L66 484L174 484L203 667L301 667L272 484L386 484L415 667L513 667L484 484L592 484L578 396L470 396L452 284L560 284L546 196L438 196L407 0M354 284L372 396L258 396L240 284L354 284Z"  horiz-adv-x="600" vert-adv-y="1000"  />

      
      <glyph glyph-name="uni24" unicode="&#x24;" d="M476 567L394 519Q384 543 364 561Q334 585 292 585Q247 585 222.50 562Q198 539 198 505Q198 453 270 424L337 397Q494 333 494 201Q494 119 447 62Q400 5 326-9L326-100L252-100L252-12Q175-6 122 54Q73 109 66 184L167 206Q167 158 195 121Q227 81 282 81Q329 81 360.50 112Q392 143 392 193Q392 239 365.50 264Q339 289 296 307L232 334Q96 391 96 503Q96 569 140.50 618Q185 667 252 676L252 761L326 761L326 677Q386 667 425 634Q456 606 476 567Z"  horiz-adv-x="568" vert-adv-y="1000"  />

      
      <glyph glyph-name="uni25" unicode="&#x25;" d="M80.50 626.50Q80.50 626.50 104.25 649.75Q128 673 194 673Q260 673 307.50 626.50Q355 580 355 516Q355 452 307.50 405.50Q260 359 194 359Q128 359 80.50 405.50Q33 452 33 516Q33 580 80.50 626.50M133 457.50Q133 457.50 144 444.25Q155 431 194 431Q233 431 255 457.50Q277 484 277 516Q277 548 255 574.50Q233 601 194 601Q155 601 133 574.50Q111 548 111 516Q111 484 133 457.50M191 18L572 678L619 651L238-11L191 18M502.50 260.50Q502.50 260.50 526.25 283.75Q550 307 616 307Q682 307 729.50 260.50Q777 214 777 150Q777 86 729.50 39.50Q682-7 616-7Q550-7 502.50 39.50Q455 86 455 150Q455 214 502.50 260.50M555 91.50Q555 91.50 566 78.25Q577 65 616 65Q655 65 677 91.50Q699 118 699 150Q699 182 677 208.50Q655 235 616 235Q577 235 555 208.50Q533 182 533 150Q533 118 555 91.50Z"  horiz-adv-x="810" vert-adv-y="1000"  />

      
      <glyph glyph-name="uni26" unicode="&#x26;" d="M537 313L602 245L523 154L646 0L522 0L456 82Q430 55 400 33Q335-13 254-13Q162-13 108 41Q54 95 54 178Q54 238 79 277Q104 316 150 350Q180 372 203 387Q137 453 137 525Q137 588 177.50 633.50Q218 679 295 679Q370 679 412.50 636Q455 593 455 535Q455 487 426 448Q400 414 343 371L461 227L537 313M395 154L263 314Q217 289 190 259Q154 220 154 174Q154 132 183 102.50Q212 73 258 73Q294 73 333 99Q357 117 395 154M284 442L321 469Q361 497 361 535Q361 559 344.50 577Q328 595 295 595Q265 595 248 578.50Q231 562 231 536Q231 505 254 478L284 442Z"  horiz-adv-x="646" vert-adv-y="1000"  />

      
      <glyph glyph-name="uni27" unicode="&#x27;" d="M156 667L138 399L66 399L48 667L156 667Z"  horiz-adv-x="204" vert-adv-y="1000"  />

      
      <glyph glyph-name="uni28" unicode="&#x28;" d="M264-150L174-185Q136-105 112-8Q80 126 80 276Q80 426 112 560Q136 657 174 737L264 702Q227 619 209 543Q180 425 180 276Q180 127 209 9Q227-67 264-150Z"  horiz-adv-x="324" vert-adv-y="1000"  />

      
      <glyph glyph-name="uni29" unicode="&#x29;" d="M60 702L150 737Q188 657 212 560Q244 426 244 276Q244 126 212-8Q188-105 150-185L60-150Q97-67 115 9Q144 127 144 276Q144 425 115 543Q97 619 60 702Z"  horiz-adv-x="324" vert-adv-y="1000"  />

      
      <glyph glyph-name="uni2a" unicode="&#x2a;" d="M138 655L247 613L240 729L328 729L321 613L430 655L457 573L344 543L418 452L348 402L284 500L220 402L150 452L224 543L111 573L138 655Z"  horiz-adv-x="568" vert-adv-y="1000"  />

      
      <glyph glyph-name="uni2b" unicode="&#x2b;" d="M33 291L33 381L203 381L203 551L297 551L297 381L467 381L467 291L297 291L297 121L203 121L203 291L33 291Z"  horiz-adv-x="500" vert-adv-y="1000"  />

      
      <glyph glyph-name="uni2c" unicode="&#x2c;" d="M10-129L112 125L200 91L76-156L10-129Z"  horiz-adv-x="320" vert-adv-y="1000"  />

      
      <glyph glyph-name="uni2d" unicode="&#x2d;" d="M40 162L40 264L280 264L280 162L40 162Z"  horiz-adv-x="320" vert-adv-y="1000"  />

      
      <glyph glyph-name="uniad" unicode="&#xad;" d="M40 162L40 264L280 264L280 162L40 162Z"  horiz-adv-x="320" vert-adv-y="1000"  />

      
      <glyph glyph-name="uni2e" unicode="&#x2e;" d="M83.50 5.50Q83.50 5.50 74.75 14.25Q66 23 66 48Q66 73 83.50 90.50Q101 108 126 108Q151 108 168.50 90.50Q186 73 186 48Q186 23 168.50 5.50Q151-12 126-12Q101-12 83.50 5.50Z"  horiz-adv-x="252" vert-adv-y="1000"  />

      
      <glyph glyph-name="uni2f" unicode="&#x2f;" d="M0-147L382 737L462 701L80-183L0-147Z"  horiz-adv-x="540" vert-adv-y="1000"  />

      
      <glyph glyph-name="uni30" unicode="&#x30;" d="M435 61Q372-11 284-11Q196-11 133 61Q48 158 48 333Q48 509 133 606Q196 678 284 678Q372 678 435 606Q520 509 520 333Q520 158 435 61M374 533Q338 588 284 588Q230 588 194 533Q148 465 148 334Q148 204 194 134Q230 79 284 79Q338 79 374 134Q420 204 420 334Q420 465 374 533Z"  horiz-adv-x="568" vert-adv-y="1000"  />

      
      <glyph glyph-name="uni31" unicode="&#x31;" d="M250 0L250 573L134 573L190 667L352 667L352 0L250 0Z"  horiz-adv-x="568" vert-adv-y="1000"  />

      
      <glyph glyph-name="uni32" unicode="&#x32;" d="M482 94L482 0L34 0L265 280Q317 343 345 384Q380 436 380 480Q380 525 351 556.50Q322 588 269 588Q216 588 185 553Q154 518 151 467L53 467Q57 555 109 613Q167 678 265 678Q366 678 423 619Q480 560 480 477Q480 408 432 337Q406 298 337 217L233 94L482 94Z"  horiz-adv-x="568" vert-adv-y="1000"  />

      
      <glyph glyph-name="uni33" unicode="&#x33;" d="M166 497L68 497Q69 554 101 601Q153 678 265 678Q355 678 409 627Q463 576 463 494Q463 401 390 352Q474 307 474 199Q474 171 468.50 144Q463 117 447.50 88Q432 59 409 38Q386 17 347.50 3Q309-11 260-11Q112-11 64 108Q49 143 48 181L146 181Q152 133 183.50 106Q215 79 261 79Q318 79 347 114.50Q376 150 376 201Q376 253 343 281.50Q310 310 260 310L240 310L240 396L260 396Q365 396 365 487Q365 535 336.50 561.50Q308 588 263 588Q223 588 196.50 563.50Q170 539 166 497Z"  horiz-adv-x="568" vert-adv-y="1000"  />

      
      <glyph glyph-name="uni34" unicode="&#x34;" d="M448 716L448 189L520 189L520 95L448 95L448 0L350 0L350 95L20 95L448 716M200 189L350 189L350 411L200 189Z"  horiz-adv-x="568" vert-adv-y="1000"  />

      
      <glyph glyph-name="uni35" unicode="&#x35;" d="M477 667L477 573L271 573L238 462Q256 464 266 464Q353 464 412 414Q488 350 488 235Q488 135 424 62Q360-11 238-11Q98-11 28 114L105 178Q148 79 246 79Q313 79 350.50 121.50Q388 164 388 229Q388 292 351 333Q314 374 247 374Q172 374 130 316L97 316L201 667L477 667Z"  horiz-adv-x="568" vert-adv-y="1000"  />

      
      <glyph glyph-name="uni36" unicode="&#x36;" d="M358 690L432 635L273 418Q291 421 309 421Q386 421 447 367Q508 313 508 211Q508 115 448 52Q388-11 286-11Q179-11 119.50 53Q60 117 60 204Q60 282 126 373L358 690M282 333Q230 333 195 297.50Q160 262 160 206Q160 151 195.50 115Q231 79 284 79Q337 79 372.50 115Q408 151 408 206Q408 261 372.50 297Q337 333 282 333Z"  horiz-adv-x="568" vert-adv-y="1000"  />

      
      <glyph glyph-name="uni37" unicode="&#x37;" d="M50 27L382 573L54 573L54 667L550 667L130-23L50 27Z"  horiz-adv-x="568" vert-adv-y="1000"  />

      
      <glyph glyph-name="uni38" unicode="&#x38;" d="M404 347Q494 302 494 190Q494 97 432 43Q370-11 284-11Q198-11 136 43Q74 97 74 190Q74 302 164 347Q91 398 91 488Q91 575 146.50 626.50Q202 678 284 678Q366 678 421.50 626.50Q477 575 477 488Q477 398 404 347M214 413Q214 413 229.50 400Q245 387 284 387Q323 387 354 413Q385 439 385 487Q385 532 356.50 560Q328 588 284 588Q240 588 211.50 560Q183 532 183 487Q183 439 214 413M205 110.50Q205 110.50 220.50 94.75Q236 79 284 79Q332 79 363 110.50Q394 142 394 192Q394 239 363 271Q332 303 284 303Q236 303 205 271Q174 239 174 192Q174 142 205 110.50Z"  horiz-adv-x="568" vert-adv-y="1000"  />

      
      <glyph glyph-name="uni39" unicode="&#x39;" d="M210-23L136 32L295 249Q280 246 264 246Q186 246 123 302.50Q60 359 60 456Q60 551 121 614.50Q182 678 282 678Q389 678 448.50 614Q508 550 508 463Q508 385 442 294L210-23M286 334Q338 334 373 369.50Q408 405 408 461Q408 516 372.50 552Q337 588 284 588Q231 588 195.50 552Q160 516 160 461Q160 406 195.50 370Q231 334 286 334Z"  horiz-adv-x="568" vert-adv-y="1000"  />

      
      <glyph glyph-name="uni3a" unicode="&#x3a;" d="M83.50 329.50Q83.50 329.50 74.75 338.25Q66 347 66 372Q66 397 83.50 414.50Q101 432 126 432Q151 432 168.50 414.50Q186 397 186 372Q186 347 168.50 329.50Q151 312 126 312Q101 312 83.50 329.50M83.50 5.50Q83.50 5.50 74.75 14.25Q66 23 66 48Q66 73 83.50 90.50Q101 108 126 108Q151 108 168.50 90.50Q186 73 186 48Q186 23 168.50 5.50Q151-12 126-12Q101-12 83.50 5.50Z"  horiz-adv-x="252" vert-adv-y="1000"  />

      
      <glyph glyph-name="uni3b" unicode="&#x3b;" d="M107.50 329.50Q107.50 329.50 98.75 338.25Q90 347 90 372Q90 397 107.50 414.50Q125 432 150 432Q175 432 192.50 414.50Q210 397 210 372Q210 347 192.50 329.50Q175 312 150 312Q125 312 107.50 329.50M10-129L112 125L200 91L76-156L10-129Z"  horiz-adv-x="320" vert-adv-y="1000"  />

      
      <glyph glyph-name="uni3c" unicode="&#x3c;" d="M137 332L467 176L467 80L33 291L33 373L467 584L467 488L137 332Z"  horiz-adv-x="500" vert-adv-y="1000"  />

      
      <glyph glyph-name="uni3d" unicode="&#x3d;" d="M33 380L33 464L467 464L467 380L33 380M33 218L33 302L467 302L467 218L33 218Z"  horiz-adv-x="500" vert-adv-y="1000"  />

      
      <glyph glyph-name="uni3e" unicode="&#x3e;" d="M363 332L33 488L33 584L467 373L467 291L33 80L33 176L363 332Z"  horiz-adv-x="500" vert-adv-y="1000"  />

      
      <glyph glyph-name="uni3f" unicode="&#x3f;" d="M158 482L56 482Q54 505 54 516Q54 583 96 629.50Q138 676 217 676Q289 676 334.50 634Q380 592 380 516Q380 440 321 397Q293 377 221 350Q205 344 195.50 339.50Q186 335 176 322.50Q166 310 166 292Q166 270 180 256.50Q194 243 216 243Q244 243 258 267Q269 285 267 311L365 311Q364 253 339 217Q296 153 214 153Q154 153 110 192Q66 231 66 301Q66 358 96.50 386.50Q127 415 185 437Q246 460 258 470Q280 488 280 520Q280 548 264 567Q248 586 217 586Q185 586 169.50 566Q154 546 154 515Q154 502 158 482M175.50 5.50Q175.50 5.50 166.75 14.25Q158 23 158 48Q158 73 175.50 90.50Q193 108 218 108Q243 108 260.50 90.50Q278 73 278 48Q278 23 260.50 5.50Q243-12 218-12Q193-12 175.50 5.50Z"  horiz-adv-x="434" vert-adv-y="1000"  />

      
      <glyph glyph-name="uni40" unicode="&#x40;" d="M474 439L484 491L552 491L513 290Q507 260 507 245Q507 224 517 214.50Q527 205 539 205Q571 205 599 245Q616 269 625 309Q634 349 634 380Q634 473 569.50 545Q505 617 385 617Q264 617 181 534Q98 451 98 328Q98 240 144 169Q190 98 270 68Q320 48 384 48Q494 48 587 89L604 27Q510-12 389-12Q241-12 147 69Q34 168 34 329Q34 480 133 578.50Q232 677 382 677Q517 677 607.50 596.50Q698 516 698 381Q698 275 650 211Q602 148 535 148Q504 148 484.50 165Q465 182 459 210Q415 142 335 142Q283 142 238.50 180.50Q194 219 194 302Q194 395 248 449Q302 503 369 503Q445 503 474 439M345 212Q388 212 420.50 250Q453 288 453 347Q453 390 431 411.50Q409 433 377 433Q333 433 302 398Q271 363 271 303Q271 259 292.50 235.50Q314 212 345 212Z"  horiz-adv-x="732" vert-adv-y="1000"  />

      
      <glyph glyph-name="uni41" unicode="&#x41;" d="M542 0L472 161L187 161L114 0L4 0L336 706L652 0L542 0M229 257L431 257L332 483L229 257Z"  horiz-adv-x="656" vert-adv-y="1000"  />

      
      <glyph glyph-name="uni42" unicode="&#x42;" d="M80 667L181 667Q291 667 341 632Q418 580 418 481Q418 403 362 359Q417 342 447.50 299.50Q478 257 478 204Q478 101 411 47Q374 16 334.50 8Q295 0 233 0L80 0L80 667M182 571L182 380L213 380Q322 380 322 478Q322 571 217 571L182 571M182 296L182 96L244 96Q320 96 349 125.50Q378 155 378 195Q378 296 246 296L182 296Z"  horiz-adv-x="526" vert-adv-y="1000"  />

      
      <glyph glyph-name="uni43" unicode="&#x43;" d="M574 631L574 511Q492 585 393 585Q285 585 217.50 513.50Q150 442 150 331Q150 224 219 152.50Q288 81 394 81Q493 81 574 158L574 37Q490-13 391-13Q252-13 155 79Q48 179 48 331Q48 491 155 592Q247 679 396 679Q499 679 574 631Z"  horiz-adv-x="620" vert-adv-y="1000"  />

      
      <glyph glyph-name="uni44" unicode="&#x44;" d="M80 667L220 667Q299 667 358 653.50Q417 640 468 602Q529 556 562.50 486Q596 416 596 333Q596 158 462 64Q408 26 352 13Q296 0 218 0L80 0L80 667M182 571L182 96L226 96Q340 96 403 143Q494 212 494 333Q494 395 468.50 446Q443 497 404 525Q340 571 226 571L182 571Z"  horiz-adv-x="644" vert-adv-y="1000"  />

      
      <glyph glyph-name="uni45" unicode="&#x45;" d="M448 667L448 571L182 571L182 412L440 412L440 316L182 316L182 96L448 96L448 0L80 0L80 667L448 667Z"  horiz-adv-x="500" vert-adv-y="1000"  />

      
      <glyph glyph-name="uni46" unicode="&#x46;" d="M414 667L414 571L182 571L182 412L406 412L406 316L182 316L182 0L80 0L80 667L414 667Z"  horiz-adv-x="450" vert-adv-y="1000"  />

      
      <glyph glyph-name="uni47" unicode="&#x47;" d="M425 253L425 347L700 347L700 326Q700 192 641 111Q606 63 543.50 25Q481-13 389-13Q247-13 150 84Q48 186 48 333Q48 478 143 577Q241 679 395 679Q509 679 598 615Q640 586 671 544L599 475Q523 585 395 585Q289 585 219.50 513Q150 441 150 332Q150 225 219 153Q288 81 392 81Q471 81 525 129.50Q579 178 591 253L425 253Z"  horiz-adv-x="748" vert-adv-y="1000"  />

      
      <glyph glyph-name="uni48" unicode="&#x48;" d="M182 667L182 407L468 407L468 667L570 667L570 0L468 0L468 311L182 311L182 0L80 0L80 667L182 667Z"  horiz-adv-x="650" vert-adv-y="1000"  />

      
      <glyph glyph-name="uni49" unicode="&#x49;" d="M80 667L182 667L182 0L80 0L80 667Z"  horiz-adv-x="262" vert-adv-y="1000"  />

      
      <glyph glyph-name="uni4a" unicode="&#x4a;" d="M180 667L282 667L282 235Q282 133 257 83Q209-13 100-13Q34-13-18 21L32 107Q60 83 102 83Q151 83 169 128Q180 156 180 235L180 667Z"  horiz-adv-x="362" vert-adv-y="1000"  />

      
      <glyph glyph-name="uni4b" unicode="&#x4b;" d="M182 667L182 401L440 667L574 667L273 365L576 0L440 0L202 296L182 276L182 0L80 0L80 667L182 667Z"  horiz-adv-x="586" vert-adv-y="1000"  />

      
      <glyph glyph-name="uni4c" unicode="&#x4c;" d="M80 667L182 667L182 96L378 96L378 0L80 0L80 667Z"  horiz-adv-x="394" vert-adv-y="1000"  />

      
      <glyph glyph-name="uni4d" unicode="&#x4d;" d="M164 0L60 0L200 717L432 199L666 717L792 0L688 0L620 402L426-31L234 403L164 0Z"  horiz-adv-x="852" vert-adv-y="1000"  />

      
      <glyph glyph-name="uni4e" unicode="&#x4e;" d="M182 0L80 0L80 712L564 205L564 667L666 667L666-41L182 466L182 0Z"  horiz-adv-x="746" vert-adv-y="1000"  />

      
      <glyph glyph-name="uni4f" unicode="&#x4f;" d="M147 580Q147 580 196.50 629.50Q246 679 395 679Q544 679 643 580Q742 481 742 333Q742 185 643 86Q544-13 395-13Q246-13 147 86Q48 185 48 333Q48 481 147 580M219 151.50Q219 151.50 253.50 116.25Q288 81 395 81Q502 81 571 151.50Q640 222 640 333Q640 444 571 514.50Q502 585 395 585Q288 585 219 514.50Q150 444 150 333Q150 222 219 151.50Z"  horiz-adv-x="790" vert-adv-y="1000"  />

      
      <glyph glyph-name="uni50" unicode="&#x50;" d="M80 667L227 667Q319 667 373 631Q413 604 434.50 560.50Q456 517 456 469Q456 379 391 323Q330 271 228 271L182 271L182 0L80 0L80 667M182 573L182 365L228 365Q292 365 325 393.50Q358 422 358 470Q358 487 353.50 502Q349 517 336.50 534.50Q324 552 296 562.50Q268 573 227 573L182 573Z"  horiz-adv-x="480" vert-adv-y="1000"  />

      
      <glyph glyph-name="uni51" unicode="&#x51;" d="M632-13L582 37Q503-13 395-13Q245-13 146.50 85.50Q48 184 48 333Q48 481 147 580Q246 679 395 679Q544 679 643 579.50Q742 480 742 333Q742 193 650 94L758-13L632-13M479 264L581 163Q640 231 640 333Q640 444 571 514.50Q502 585 395 585Q288 585 219 514.50Q150 444 150 333Q150 222 219 151.50Q288 81 395 81Q460 81 510 107L352 264L479 264Z"  horiz-adv-x="790" vert-adv-y="1000"  />

      
      <glyph glyph-name="uni52" unicode="&#x52;" d="M80 667L199 667Q317 667 375 628Q454 575 454 471Q454 400 413.50 350Q373 300 306 285L514 0L391 0L200 273L182 273L182 0L80 0L80 667M182 573L182 361L214 361Q227 361 240 362Q253 363 275.50 369Q298 375 314.50 385.50Q331 396 343.50 418Q356 440 356 470Q356 573 217 573L182 573Z"  horiz-adv-x="534" vert-adv-y="1000"  />

      
      <glyph glyph-name="uni53" unicode="&#x53;" d="M450 567L368 519Q358 543 338 561Q308 585 266 585Q221 585 196.50 562Q172 539 172 505Q172 453 244 424L311 397Q468 333 468 201Q468 106 407.50 46.50Q347-13 253-13Q156-13 96 54Q47 109 40 184L141 206Q141 158 169 121Q201 81 256 81Q303 81 334.50 112Q366 143 366 193Q366 239 339.50 264Q313 289 270 307L206 334Q70 391 70 503Q70 575 122.50 627Q175 679 265 679Q346 679 399 634Q430 606 450 567Z"  horiz-adv-x="516" vert-adv-y="1000"  />

      
      <glyph glyph-name="uni54" unicode="&#x54;" d="M418 571L265 571L265 0L163 0L163 571L10 571L10 667L418 667L418 571Z"  horiz-adv-x="428" vert-adv-y="1000"  />

      
      <glyph glyph-name="uni55" unicode="&#x55;" d="M80 667L182 667L182 265Q182 187 203 150Q220 122 253 101.50Q286 81 327 81Q368 81 401 101.50Q434 122 451 150Q472 187 472 265L472 667L574 667L574 238Q574 133 512 65Q440-13 327-13Q214-13 142 65Q80 133 80 238L80 667Z"  horiz-adv-x="654" vert-adv-y="1000"  />

      
      <glyph glyph-name="uni56" unicode="&#x56;" d="M4 667L114 667L300 202L486 667L596 667L300-43L4 667Z"  horiz-adv-x="600" vert-adv-y="1000"  />

      
      <glyph glyph-name="uni57" unicode="&#x57;" d="M4 667L114 667L290 221L470 699L644 221L826 667L936 667L638-43L464 430L288-43L4 667Z"  horiz-adv-x="940" vert-adv-y="1000"  />

      
      <glyph glyph-name="uni58" unicode="&#x58;" d="M10 0L220 348L36 667L150 667L280 441L413 667L527 667L335 348L536 0L422 0L276 255L124 0L10 0Z"  horiz-adv-x="546" vert-adv-y="1000"  />

      
      <glyph glyph-name="uni59" unicode="&#x59;" d="M219 0L219 288L0 667L116 667L270 400L424 667L540 667L321 288L321 0L219 0Z"  horiz-adv-x="540" vert-adv-y="1000"  />

      
      <glyph glyph-name="uni5a" unicode="&#x5a;" d="M524 667L196 96L516 96L516 0L30 0L358 571L84 571L84 667L524 667Z"  horiz-adv-x="554" vert-adv-y="1000"  />

      
      <glyph glyph-name="uni5b" unicode="&#x5b;" d="M270 639L186 639L186-87L270-87L270-177L88-177L88 729L270 729L270 639Z"  horiz-adv-x="316" vert-adv-y="1000"  />

      
      <glyph glyph-name="uni5c" unicode="&#x5c;" d="M540-147L460-183L78 701L158 737L540-147Z"  horiz-adv-x="540" vert-adv-y="1000"  />

      
      <glyph glyph-name="uni5d" unicode="&#x5d;" d="M46-87L130-87L130 639L46 639L46 729L228 729L228-177L46-177L46-87Z"  horiz-adv-x="316" vert-adv-y="1000"  />

      
      <glyph glyph-name="uni5e" unicode="&#x5e;" d="M250 592L120 352L16 352L187 669L313 669L484 352L380 352L250 592Z"  horiz-adv-x="500" vert-adv-y="1000"  />

      
      <glyph glyph-name="uni5f" unicode="&#x5f;" d="M0-144L0-58L400-58L400-144L0-144Z"  horiz-adv-x="400" vert-adv-y="1000"  />

      
      <glyph glyph-name="uni60" unicode="&#x60;" d="M241 485L85 629L175 675L295 519L241 485Z"  horiz-adv-x="500" vert-adv-y="1000"  />

      
      <glyph glyph-name="uni61" unicode="&#x61;" d="M370 372L370 421L468 421L468 0L370 0L370 44Q321-13 244-13Q151-13 95.50 53Q40 119 40 211Q40 311 99.50 371.50Q159 432 245 432Q324 432 370 372M257 344Q205 344 172.50 305Q140 266 140 209Q140 153 172.50 114Q205 75 257 75Q307 75 341.50 110Q376 145 376 208Q376 273 341.50 308.50Q307 344 257 344Z"  horiz-adv-x="530" vert-adv-y="1000"  />

      
      <glyph glyph-name="uni62" unicode="&#x62;" d="M160 729L160 372Q206 432 285 432Q371 432 430.50 371.50Q490 311 490 211Q490 119 434.50 53Q379-13 286-13Q209-13 160 44L160 0L62 0L62 729L160 729M273 344Q223 344 188.50 308.50Q154 273 154 208Q154 145 188.50 110Q223 75 273 75Q325 75 357.50 114Q390 153 390 209Q390 266 357.50 305Q325 344 273 344Z"  horiz-adv-x="530" vert-adv-y="1000"  />

      
      <glyph glyph-name="uni63" unicode="&#x63;" d="M388 402L388 273Q347 344 266 344Q215 344 177.50 308Q140 272 140 210Q140 153 174.50 114Q209 75 265 75Q302 75 335 94Q368 113 388 147L388 18Q334-13 272-13Q163-13 100 51Q40 113 40 209Q40 310 108 375Q168 432 269 432Q338 432 388 402Z"  horiz-adv-x="420" vert-adv-y="1000"  />

      
      <glyph glyph-name="uni64" unicode="&#x64;" d="M370 372L370 729L468 729L468 0L370 0L370 44Q321-13 244-13Q151-13 95.50 53Q40 119 40 211Q40 311 99.50 371.50Q159 432 245 432Q324 432 370 372M257 344Q205 344 172.50 305Q140 266 140 209Q140 153 172.50 114Q205 75 257 75Q307 75 341.50 110Q376 145 376 208Q376 273 341.50 308.50Q307 344 257 344Z"  horiz-adv-x="530" vert-adv-y="1000"  />

      
      <glyph glyph-name="uni65" unicode="&#x65;" d="M364 156L446 110Q423 66 391 38Q333-13 250-13Q164-13 102 44Q40 101 40 208Q40 308 96 370Q152 432 245 432Q349 432 403 355Q442 299 442 202L442 187L140 187Q142 133 176.50 104Q211 75 254 75Q293 75 321 98Q349 119 364 156M147 267L342 267Q334 302 307.50 323Q281 344 245 344Q209 344 183 323Q157 302 147 267Z"  horiz-adv-x="486" vert-adv-y="1000"  />

      
      <glyph glyph-name="uni66" unicode="&#x66;" d="M268 331L162 331L162 0L64 0L64 331L30 331L30 421L64 421L64 583Q64 672 108 710Q143 741 198 741Q235 741 268 726L268 627Q234 647 206 647Q182 647 172 632Q162 619 162 584L162 421L268 421L268 331Z"  horiz-adv-x="262" vert-adv-y="1000"  />

      
      <glyph glyph-name="uni67" unicode="&#x67;" d="M370 375L370 421L468 421L468 10Q468-26 466.50-47.50Q465-69 456.50-98Q448-127 432-150Q374-230 263-230Q171-230 113-173.50Q55-117 59-25L154-25Q152-76 182-109Q212-142 263-142Q370-142 370-8L370 47Q321-13 244-13Q150-13 95 53Q40 119 40 211Q40 311 99.50 371.50Q159 432 245 432Q322 432 370 375M257 344Q205 344 172.50 305Q140 266 140 209Q140 153 172.50 114Q205 75 257 75Q307 75 341.50 110Q376 145 376 208Q376 273 341.50 308.50Q307 344 257 344Z"  horiz-adv-x="530" vert-adv-y="1000"  />

      
      <glyph glyph-name="uni68" unicode="&#x68;" d="M62 0L62 729L160 729L160 385Q206 432 273 432Q357 432 397 375Q424 336 424 258L424 0L326 0L326 249Q326 301 307 322Q287 344 252 344Q204 344 180 309Q160 280 160 203L160 0L62 0Z"  horiz-adv-x="486" vert-adv-y="1000"  />

      
      <glyph glyph-name="uni69" unicode="&#x69;" d="M62 421L160 421L160 0L62 0L62 421M66 550Q66 550 57 559Q48 568 48 595Q48 622 66 640Q84 658 111 658Q138 658 156 640Q174 622 174 595Q174 568 156 550Q138 532 111 532Q84 532 66 550Z"  horiz-adv-x="222" vert-adv-y="1000"  />

      
      <glyph glyph-name="uni6a" unicode="&#x6a;" d="M62 421L160 421L160-229L62-229L62 421M66 550Q66 550 57 559Q48 568 48 595Q48 622 66 640Q84 658 111 658Q138 658 156 640Q174 622 174 595Q174 568 156 550Q138 532 111 532Q84 532 66 550Z"  horiz-adv-x="222" vert-adv-y="1000"  />

      
      <glyph glyph-name="uni6b" unicode="&#x6b;" d="M62 729L160 729L160 280L297 421L427 421L246 246L440 0L316 0L178 180L160 162L160 0L62 0L62 729Z"  horiz-adv-x="442" vert-adv-y="1000"  />

      
      <glyph glyph-name="uni6c" unicode="&#x6c;" d="M62 729L160 729L160 0L62 0L62 729Z"  horiz-adv-x="222" vert-adv-y="1000"  />

      
      <glyph glyph-name="uni6d" unicode="&#x6d;" d="M62 0L62 421L160 421L160 382Q201 432 264 432Q337 432 373 370Q416 432 498 432Q580 432 618 366Q640 327 640 260L640 0L542 0L542 232Q542 287 533 307Q519 344 477 344Q441 344 419 313Q400 286 400 217L400 0L302 0L302 232Q302 287 293 307Q279 344 237 344Q201 344 179 313Q160 286 160 217L160 0L62 0Z"  horiz-adv-x="702" vert-adv-y="1000"  />

      
      <glyph glyph-name="uni6e" unicode="&#x6e;" d="M61 0L61 421L159 421L159 382Q204 432 273 432Q356 432 397 375Q423 338 423 258L423 0L325 0L325 234Q325 272 319 296Q313 320 300 329.50Q287 339 276.50 341.50Q266 344 248 344Q227 344 214.50 340.50Q202 337 187.50 324.50Q173 312 166 281.50Q159 251 159 202L159 0L61 0Z"  horiz-adv-x="485" vert-adv-y="1000"  />

      
      <glyph glyph-name="uni6f" unicode="&#x6f;" d="M104.50 369.50Q104.50 369.50 136.75 400.75Q169 432 265 432Q361 432 425.50 369.50Q490 307 490 210Q490 114 425.50 50.50Q361-13 265-13Q169-13 104.50 50.50Q40 114 40 210Q40 307 104.50 369.50M174 111.50Q174 111.50 191 93.25Q208 75 265 75Q322 75 356 111.50Q390 148 390 209Q390 276 353.50 310Q317 344 265 344Q213 344 176.50 310Q140 276 140 209Q140 148 174 111.50Z"  horiz-adv-x="530" vert-adv-y="1000"  />

      
      <glyph glyph-name="uni70" unicode="&#x70;" d="M160 49L160-229L62-229L62 421L160 421L160 375Q208 432 285 432Q371 432 430.50 371.50Q490 311 490 213Q490 112 428 49.50Q366-13 286-13Q211-13 160 49M273 344Q223 344 188.50 308.50Q154 273 154 208Q154 145 188.50 110Q223 75 273 75Q325 75 357.50 114Q390 153 390 209Q390 266 357.50 305Q325 344 273 344Z"  horiz-adv-x="530" vert-adv-y="1000"  />

      
      <glyph glyph-name="uni71" unicode="&#x71;" d="M370 375L370 421L468 421L468-229L370-229L370 47Q321-13 244-13Q150-13 95 53Q40 119 40 211Q40 311 99.50 371.50Q159 432 245 432Q322 432 370 375M257 344Q205 344 172.50 305Q140 266 140 209Q140 153 172.50 114Q205 75 257 75Q307 75 341.50 110Q376 145 376 208Q376 273 341.50 308.50Q307 344 257 344Z"  horiz-adv-x="530" vert-adv-y="1000"  />

      
      <glyph glyph-name="uni72" unicode="&#x72;" d="M62 0L62 421L160 421L160 383Q201 432 259 432Q299 432 338 407L294 318Q265 338 239 338Q198 338 177 305Q160 278 160 218L160 0L62 0Z"  horiz-adv-x="332" vert-adv-y="1000"  />

      
      <glyph glyph-name="uni73" unicode="&#x73;" d="M307 349L226 306Q212 344 179 344Q167 344 157 337.50Q147 331 147 317Q147 313 148 309Q149 305 151 301.50Q153 298 155 295.50Q157 293 161 290Q165 287 167.50 285Q170 283 175.50 280Q181 277 184 276Q187 275 193.50 271.50Q200 268 203 267Q258 241 283 224Q334 187 334 130Q334 70 289.50 28.50Q245-13 180-13Q169-13 155.50-10.50Q142-8 117 0.50Q92 9 69.50 32.50Q47 56 34 91L116 129Q124 106 141.50 90.50Q159 75 185 75Q207 75 220.50 87.50Q234 100 234 120Q234 134 226 145.50Q218 157 210.50 161.50Q203 166 189 173Q111 210 105 214Q55 247 55 306Q55 364 92.50 398Q130 432 187 432Q271 432 307 349Z"  horiz-adv-x="360" vert-adv-y="1000"  />

      
      <glyph glyph-name="uni74" unicode="&#x74;" d="M238 331L163 331L163 0L65 0L65 331L24 331L24 421L65 421L65 575L163 575L163 421L238 421L238 331Z"  horiz-adv-x="242" vert-adv-y="1000"  />

      
      <glyph glyph-name="uni75" unicode="&#x75;" d="M62 421L160 421L160 180Q160 127 178 104Q200 75 242 75Q284 75 306 104Q324 127 324 180L324 421L422 421L422 177Q422 84 377 39Q325-13 240-13Q158-13 107 39Q62 84 62 177L62 421Z"  horiz-adv-x="484" vert-adv-y="1000"  />

      
      <glyph glyph-name="uni76" unicode="&#x76;" d="M6 421L116 421L224 181L332 421L442 421L224-30L6 421Z"  horiz-adv-x="448" vert-adv-y="1000"  />

      
      <glyph glyph-name="uni77" unicode="&#x77;" d="M6 421L116 421L225 180L343 457L461 180L570 421L680 421L461-30L343 239L225-30L6 421Z"  horiz-adv-x="686" vert-adv-y="1000"  />

      
      <glyph glyph-name="uni78" unicode="&#x78;" d="M6 0L192 228L42 421L158 421L251 298L345 421L465 421L310 228L490 0L372 0L251 157L126 0L6 0Z"  horiz-adv-x="496" vert-adv-y="1000"  />

      
      <glyph glyph-name="uni79" unicode="&#x79;" d="M31-229L193 78L6 421L124 421L248 184L366 421L476 421L141-229L31-229Z"  horiz-adv-x="482" vert-adv-y="1000"  />

      
      <glyph glyph-name="uni7a" unicode="&#x7a;" d="M472 421L201 90L451 90L451 0L8 0L281 331L66 331L66 421L472 421Z"  horiz-adv-x="480" vert-adv-y="1000"  />

      
      <glyph glyph-name="uni7b" unicode="&#x7b;" d="M288 512L288 364Q288 315 276 290Q260 258 226 243Q260 228 276 196Q288 171 288 122L288-26Q288-73 305-90Q322-106 376-106L384-106L384-190L337-190Q266-190 234-166Q190-133 190-51L190 120Q190 193 134 203L134 283Q190 293 190 366L190 537Q190 619 234 652Q266 676 337 676L384 676L384 592L376 592Q322 592 305 576Q288 559 288 512Z"  horiz-adv-x="500" vert-adv-y="1000"  />

      
      <glyph glyph-name="uni7c" unicode="&#x7c;" d="M202-250L202 750L298 750L298-250L202-250Z"  horiz-adv-x="500" vert-adv-y="1000"  />

      
      <glyph glyph-name="uni7d" unicode="&#x7d;" d="M230-26L230 122Q230 171 242 196Q258 228 292 243Q258 258 242 290Q230 315 230 364L230 512Q230 559 213 576Q196 592 142 592L134 592L134 676L181 676Q252 676 284 652Q328 619 328 537L328 366Q328 293 384 283L384 203Q328 193 328 120L328-51Q328-133 284-166Q253-190 181-190L134-190L134-106L142-106Q196-106 213-90Q230-73 230-26Z"  horiz-adv-x="500" vert-adv-y="1000"  />

      
      <glyph glyph-name="uni7e" unicode="&#x7e;" d="M519 736L576 703Q550 642 510 610Q474 582 427 582Q391 582 315 614Q254 640 228 640Q197 640 177 618Q159 600 148 573L92 609Q113 660 142 692Q179 734 234 734Q272 734 344 703Q409 675 437 675Q466 675 486 693Q506 710 519 736Z"  horiz-adv-x="668" vert-adv-y="1000"  />

      
      <glyph glyph-name="unia4" unicode="&#xa4;" d="M92 660L191 561Q250 609 334 609Q418 609 477 561L576 660L630 606L531 507Q576 449 576 367Q576 285 531 227L630 128L576 74L477 173Q418 125 334 125Q250 125 191 173L92 74L38 128L137 227Q92 285 92 367Q92 449 137 507L38 606L92 660M225.50 255Q225.50 255 247.25 233Q269 211 334 211Q399 211 442.50 255Q486 299 486 367Q486 435 442.50 479Q399 523 334 523Q269 523 225.50 479Q182 435 182 367Q182 299 225.50 255Z"  horiz-adv-x="668" vert-adv-y="1000"  />

      
      <glyph glyph-name="unia6" unicode="&#xa6;" d="M202 390L202 750L298 750L298 390L202 390M202-250L202 110L298 110L298-250L202-250Z"  horiz-adv-x="500" vert-adv-y="1000"  />

      
      <glyph glyph-name="unia7" unicode="&#xa7;" d="M484 533L390 533Q392 575 373 605Q348 643 299 643Q258 643 231 617.50Q204 592 204 553Q204 535 210 521.50Q216 508 227.50 498.50Q239 489 249.50 483.50Q260 478 275 473Q394 431 427 405Q484 360 484 280Q484 172 390 126Q464 87 464-5Q464-89 409.50-138Q355-187 276-187Q223-187 175.50-162.50Q128-138 103-85Q83-41 84 8L178 8Q180-31 195-53Q219-93 276-93Q321-93 344.50-67Q368-41 368-4Q368 30 337 56Q315 75 248 97Q175 123 145 148Q90 194 90 278Q90 387 186 429Q108 473 108 559Q108 637 161 687Q214 737 298 737Q405 737 454 659Q486 608 484 533M287 377Q246 377 218 349Q190 321 190 279Q190 237 218 209Q246 181 287 181Q329 181 356.50 209Q384 237 384 279Q384 321 356.50 349Q329 377 287 377Z"  horiz-adv-x="568" vert-adv-y="1000"  />

      
      <glyph glyph-name="unia9" unicode="&#xa9;" d="M131 84.50Q131 84.50 82 133.75Q33 183 33 333Q33 483 131 581.50Q229 680 379 680Q529 680 627 581.50Q725 483 725 333Q725 183 627 84.50Q529-14 379-14Q229-14 131 84.50M586.50 121.50Q586.50 121.50 627.75 164.25Q669 207 669 333Q669 459 587 544.50Q505 630 379 630Q253 630 171 544.50Q89 459 89 333Q89 207 171.50 121.50Q254 36 379 36Q504 36 586.50 121.50M512 510L512 423Q461 473 394 473Q340 473 297.50 436Q255 399 255 332Q255 271 294 232.50Q333 194 395 194Q457 194 512 245L512 157Q457 126 394 126Q302 126 240.50 185Q179 244 179 332Q179 423 241.50 482Q304 541 398 541Q459 541 512 510Z"  horiz-adv-x="758" vert-adv-y="1000"  />

      
      <glyph glyph-name="uniab" unicode="&#xab;" d="M140 217L270 48L205 1L40 217L205 433L270 386L140 217M326 217L456 48L391 1L226 217L391 433L456 386L326 217Z"  horiz-adv-x="510" vert-adv-y="1000"  />

      
      <glyph glyph-name="uniac" unicode="&#xac;" d="M467 0L369 0L369 179L33 179L33 267L467 267L467 0Z"  horiz-adv-x="500" vert-adv-y="1000"  />

      
      <glyph glyph-name="uniae" unicode="&#xae;" d="M131 84.50Q131 84.50 82 133.75Q33 183 33 333Q33 483 131 581.50Q229 680 379 680Q529 680 627 581.50Q725 483 725 333Q725 183 627 84.50Q529-14 379-14Q229-14 131 84.50M586.50 121.50Q586.50 121.50 627.75 164.25Q669 207 669 333Q669 459 587 544.50Q505 630 379 630Q253 630 171 544.50Q89 459 89 333Q89 207 171.50 121.50Q254 36 379 36Q504 36 586.50 121.50M548 153L461 153L345 301L345 153L274 153L274 527L373 527Q415 527 444 515Q473 503 485.50 484Q498 465 502.50 448.50Q507 432 507 415Q507 374 484.50 346.50Q462 319 424 309L548 153M345 464L345 360L359 360Q437 360 437 413Q437 464 361 464L345 464Z"  horiz-adv-x="758" vert-adv-y="1000"  />

      
      <glyph glyph-name="unib0" unicode="&#xb0;" d="M146 419Q146 419 125 440Q104 461 104 522Q104 583 146 625Q188 667 250 667Q312 667 354 625Q396 583 396 522Q396 461 354 419Q312 377 250 377Q188 377 146 419M190.50 584Q190.50 584 178.25 571.50Q166 559 166 522Q166 485 190.50 460Q215 435 250 435Q285 435 309.50 460Q334 485 334 522Q334 559 309.50 584Q285 609 250 609Q215 609 190.50 584Z"  horiz-adv-x="500" vert-adv-y="1000"  />

      
      <glyph glyph-name="unib1" unicode="&#xb1;" d="M33 350L33 440L203 440L203 603L297 603L297 440L467 440L467 350L297 350L297 187L203 187L203 350L33 350M33 60L33 150L467 150L467 60L33 60Z"  horiz-adv-x="500" vert-adv-y="1000"  />

      
      <glyph glyph-name="unib5" unicode="&#xb5;" d="M160-170L62-170L62 421L160 421L160 216Q160 157 177 125Q203 76 261 76Q316 76 344 126Q364 161 364 222L364 421L462 421L462 0L364 0L364 73Q352 34 323.50 11Q295-12 258-12Q192-12 160 57L160-170Z"  horiz-adv-x="524" vert-adv-y="1000"  />

      
      <glyph glyph-name="uni03BC" unicode="&#x03BC;" d="M160-170L62-170L62 421L160 421L160 216Q160 157 177 125Q203 76 261 76Q316 76 344 126Q364 161 364 222L364 421L462 421L462 0L364 0L364 73Q352 34 323.50 11Q295-12 258-12Q192-12 160 57L160-170Z"  horiz-adv-x="524" vert-adv-y="1000"  />

      
      <glyph glyph-name="unib6" unicode="&#xb6;" d="M301-96L218-96L218 317L205 317Q125 317 74.50 364.50Q24 412 24 489Q24 546 53 589.50Q82 633 133 651Q181 667 248 667L545 667L545 591L479 591L479-96L397-96L397 591L301 591L301-96Z"  horiz-adv-x="616" vert-adv-y="1000"  />

      
      <glyph glyph-name="unib7" unicode="&#xb7;" d="M44.50 284.50Q44.50 284.50 33.25 295.75Q22 307 22 340Q22 373 44.50 395.50Q67 418 100 418Q133 418 155.50 395.50Q178 373 178 340Q178 307 155.50 284.50Q133 262 100 262Q67 262 44.50 284.50Z"  horiz-adv-x="200" vert-adv-y="1000"  />

      
      <glyph glyph-name="uni2219" unicode="&#x2219;" d="M44.50 284.50Q44.50 284.50 33.25 295.75Q22 307 22 340Q22 373 44.50 395.50Q67 418 100 418Q133 418 155.50 395.50Q178 373 178 340Q178 307 155.50 284.50Q133 262 100 262Q67 262 44.50 284.50Z"  horiz-adv-x="200" vert-adv-y="1000"  />

      
      <glyph glyph-name="unibb" unicode="&#xbb;" d="M184 217L54 386L119 433L284 217L119 1L54 48L184 217M370 217L240 386L305 433L470 217L305 1L240 48L370 217Z"  horiz-adv-x="510" vert-adv-y="1000"  />

      
      <glyph glyph-name="uni0401" unicode="&#x0401;" d="M448 667L448 571L182 571L182 412L440 412L440 316L182 316L182 96L448 96L448 0L80 0L80 667L448 667M122 751Q122 751 113 760Q104 769 104 795Q104 821 122 839Q140 857 166 857Q192 857 210 839Q228 821 228 795Q228 769 210 751Q192 733 166 733Q140 733 122 751M318 751Q318 751 309 760Q300 769 300 795Q300 821 318 839Q336 857 362 857Q388 857 406 839Q424 821 424 795Q424 769 406 751Q388 733 362 733Q336 733 318 751Z"  horiz-adv-x="500" vert-adv-y="1000"  />

      
      <glyph glyph-name="uni0402" unicode="&#x0402;" d="M486 571L266 571L266 393Q332 400 396 400Q495 400 553 369Q652 317 652 190Q652 98 596.50 43.50Q541-11 454-11Q384-11 326 19L350 112Q401 83 455 83Q498 83 524 111Q550 139 550 187Q550 263 490 289Q454 306 391 306Q334 306 266 299L266 0L164 0L164 571L10 571L10 667L486 667L486 571Z"  horiz-adv-x="700" vert-adv-y="1000"  />

      
      <glyph glyph-name="uni0403" unicode="&#x0403;" d="M80 0L80 667L414 667L414 571L182 571L182 0L80 0M234 727L186 767L324 906L410 846L234 727Z"  horiz-adv-x="428" vert-adv-y="1000"  />

      
      <glyph glyph-name="uni0404" unicode="&#x0404;" d="M574 631L574 511Q493 585 393 585Q278 585 215 515Q168 464 156 390L484 390L484 294L153 294Q160 213 214 155Q281 81 394 81Q493 81 574 158L574 37Q490-13 391-13Q252-13 155 79Q48 179 48 331Q48 491 155 592Q247 679 396 679Q499 679 574 631Z"  horiz-adv-x="620" vert-adv-y="1000"  />

      
      <glyph glyph-name="uni0405" unicode="&#x0405;" d="M450 567L368 519Q358 543 338 561Q308 585 266 585Q221 585 196.50 562Q172 539 172 505Q172 453 244 424L311 397Q468 333 468 201Q468 106 407.50 46.50Q347-13 253-13Q156-13 96 54Q47 109 40 184L141 206Q141 158 169 121Q201 81 256 81Q303 81 334.50 112Q366 143 366 193Q366 239 339.50 264Q313 289 270 307L206 334Q70 391 70 503Q70 575 122.50 627Q175 679 265 679Q346 679 399 634Q430 606 450 567Z"  horiz-adv-x="516" vert-adv-y="1000"  />

      
      <glyph glyph-name="uni0406" unicode="&#x0406;" d="M80 667L182 667L182 0L80 0L80 667Z"  horiz-adv-x="262" vert-adv-y="1000"  />

      
      <glyph glyph-name="uni0407" unicode="&#x0407;" d="M80 667L182 667L182 0L80 0L80 667M17 755.50Q17 755.50 8.50 763.75Q0 772 0 795Q0 818 17 834.50Q34 851 56 851Q78 851 95 834.50Q112 818 112 795Q112 772 95 755.50Q78 739 56 739Q34 739 17 755.50M167 755.50Q167 755.50 158.50 763.75Q150 772 150 795Q150 818 167 834.50Q184 851 206 851Q228 851 245 834.50Q262 818 262 795Q262 772 245 755.50Q228 739 206 739Q184 739 167 755.50Z"  horiz-adv-x="262" vert-adv-y="1000"  />

      
      <glyph glyph-name="uni0408" unicode="&#x0408;" d="M180 667L282 667L282 235Q282 133 257 83Q209-13 100-13Q34-13-18 21L32 107Q60 83 102 83Q151 83 169 128Q180 156 180 235L180 667Z"  horiz-adv-x="362" vert-adv-y="1000"  />

      
      <glyph glyph-name="uni0409" unicode="&#x0409;" d="M144 667L570 667L570 398L646 398Q753 398 813 345Q876 290 876 198Q876 150 854.50 106.50Q833 63 793 36Q739 0 647 0L468 0L468 571L246 571L246 239Q246 191 243 161.50Q240 132 224.50 95Q209 58 180 34Q131-6 59-6Q38-6 14 0L14 94Q34 88 51 88Q88 88 111 111Q127 126 134.50 156.50Q142 187 143 207Q144 227 144 269L144 667M570 302L570 96L642 96Q776 96 776 197Q776 241 746.50 271.50Q717 302 644 302L570 302Z"  horiz-adv-x="900" vert-adv-y="1000"  />

      
      <glyph glyph-name="uni040A" unicode="&#x040A;" d="M182 667L182 398L468 398L468 667L570 667L570 398L646 398Q753 398 813 345Q876 290 876 198Q876 150 854.50 106.50Q833 63 793 36Q739 0 647 0L468 0L468 302L182 302L182 0L80 0L80 667L182 667M570 302L570 96L642 96Q776 96 776 197Q776 241 746.50 271.50Q717 302 644 302L570 302Z"  horiz-adv-x="900" vert-adv-y="1000"  />

      
      <glyph glyph-name="uni040B" unicode="&#x040B;" d="M486 571L266 571L266 393Q328 400 395 400Q513 400 565 359Q630 308 630 197L630 0L528 0L528 182Q528 257 492 285Q465 306 386 306Q331 306 266 299L266 0L164 0L164 571L10 571L10 667L486 667L486 571Z"  horiz-adv-x="690" vert-adv-y="1000"  />

      
      <glyph glyph-name="uni040C" unicode="&#x040C;" d="M182 667L182 401L440 667L574 667L273 365L576 0L440 0L202 296L182 276L182 0L80 0L80 667L182 667M277 727L229 767L367 906L453 846L277 727Z"  horiz-adv-x="586" vert-adv-y="1000"  />

      
      <glyph glyph-name="uni040E" unicode="&#x040E;" d="M6 667L130 667L305 321L458 667L564 667L263 0L157 0L247 199L6 667M129 832L209 868Q215 849 227.50 836.50Q240 824 255.50 819.50Q271 815 279 813.50Q287 812 294 812Q301 812 309 813.50Q317 815 332.50 819.50Q348 824 360.50 836.50Q373 849 379 868L459 832Q436 776 389.50 753Q343 730 294 730Q245 730 198.50 753Q152 776 129 832Z"  horiz-adv-x="570" vert-adv-y="1000"  />

      
      <glyph glyph-name="uni040F" unicode="&#x040F;" d="M80 0L80 667L182 667L182 96L458 96L458 667L560 667L560 0L368 0L368-180L272-180L272 0L80 0Z"  horiz-adv-x="640" vert-adv-y="1000"  />

      
      <glyph glyph-name="uni0410" unicode="&#x0410;" d="M542 0L472 161L187 161L114 0L4 0L336 706L652 0L542 0M229 257L431 257L332 483L229 257Z"  horiz-adv-x="656" vert-adv-y="1000"  />

      
      <glyph glyph-name="uni0411" unicode="&#x0411;" d="M80 0L80 667L414 667L414 571L182 571L182 398L248 398Q355 398 415 345Q478 290 478 198Q478 150 456.50 106.50Q435 63 395 36Q341 0 249 0L80 0M182 302L182 96L244 96Q378 96 378 197Q378 241 348.50 271.50Q319 302 246 302L182 302Z"  horiz-adv-x="526" vert-adv-y="1000"  />

      
      <glyph glyph-name="uni0412" unicode="&#x0412;" d="M80 667L181 667Q291 667 341 632Q418 580 418 481Q418 403 362 359Q417 342 447.50 299.50Q478 257 478 204Q478 101 411 47Q374 16 334.50 8Q295 0 233 0L80 0L80 667M182 571L182 380L213 380Q322 380 322 478Q322 571 217 571L182 571M182 296L182 96L244 96Q320 96 349 125.50Q378 155 378 195Q378 296 246 296L182 296Z"  horiz-adv-x="526" vert-adv-y="1000"  />

      
      <glyph glyph-name="uni0413" unicode="&#x0413;" d="M80 0L80 667L414 667L414 571L182 571L182 0L80 0Z"  horiz-adv-x="428" vert-adv-y="1000"  />

      
      <glyph glyph-name="uni0414" unicode="&#x0414;" d="M144 667L560 667L560 96L636 96L636-150L540-150L540 0L110 0L110-150L14-150L14 96Q48 95 76 120.50Q104 146 120 186Q144 247 144 361L144 667M246 571L246 361Q246 236 223 175Q205 129 171 96L458 96L458 571L246 571Z"  horiz-adv-x="650" vert-adv-y="1000"  />

      
      <glyph glyph-name="uni0415" unicode="&#x0415;" d="M448 667L448 571L182 571L182 412L440 412L440 316L182 316L182 96L448 96L448 0L80 0L80 667L448 667Z"  horiz-adv-x="500" vert-adv-y="1000"  />

      
      <glyph glyph-name="uni0416" unicode="&#x0416;" d="M372 667L474 667L474 398L712 667L836 667L561 361L842 0L716 0L490 294L474 276L474 0L372 0L372 276L356 294L130 0L4 0L285 361L10 667L134 667L372 398L372 667Z"  horiz-adv-x="846" vert-adv-y="1000"  />

      
      <glyph glyph-name="uni0417" unicode="&#x0417;" d="M143 516L76 581Q153 678 277 678Q370 678 425 631Q480 584 480 508Q480 413 398 367Q441 356 469 330.50Q497 305 507 274Q517 243 519.50 226.50Q522 210 522 195Q522 89 435 32Q368-12 277-12Q222-12 176.50 4.50Q131 21 101.50 48Q72 75 55 98.50Q38 122 26 148L116 194Q135 147 176.50 114.50Q218 82 280 82Q337 82 372 104Q422 133 422 192Q422 304 262 304L202 304L202 400L262 400Q310 400 346 425Q382 450 382 500Q382 536 359 558Q332 584 279 584Q193 584 143 516Z"  horiz-adv-x="570" vert-adv-y="1000"  />

      
      <glyph glyph-name="uni0418" unicode="&#x0418;" d="M530 0L530 449L80-30L80 667L182 667L182 216L632 695L632 0L530 0Z"  horiz-adv-x="712" vert-adv-y="1000"  />

      
      <glyph glyph-name="uni0419" unicode="&#x0419;" d="M530 0L530 449L80-30L80 667L182 667L182 216L632 695L632 0L530 0M191 832L271 868Q277 849 289.50 836.50Q302 824 317.50 819.50Q333 815 341 813.50Q349 812 356 812Q363 812 371 813.50Q379 815 394.50 819.50Q410 824 422.50 836.50Q435 849 441 868L521 832Q502 781 456 755.50Q410 730 356 730Q302 730 256 755.50Q210 781 191 832Z"  horiz-adv-x="712" vert-adv-y="1000"  />

      
      <glyph glyph-name="uni041A" unicode="&#x041A;" d="M182 667L182 401L440 667L574 667L273 365L576 0L440 0L202 296L182 276L182 0L80 0L80 667L182 667Z"  horiz-adv-x="586" vert-adv-y="1000"  />

      
      <glyph glyph-name="uni041B" unicode="&#x041B;" d="M144 667L570 667L570 0L468 0L468 571L246 571L246 239Q246 191 243 161.50Q240 132 224.50 95Q209 58 180 34Q131-6 59-6Q38-6 14 0L14 94Q34 88 51 88Q88 88 111 111Q127 126 134.50 156.50Q142 187 143 207Q144 227 144 269L144 667Z"  horiz-adv-x="650" vert-adv-y="1000"  />

      
      <glyph glyph-name="uni041C" unicode="&#x041C;" d="M164 0L60 0L200 717L432 199L666 717L792 0L688 0L620 402L426-31L234 403L164 0Z"  horiz-adv-x="852" vert-adv-y="1000"  />

      
      <glyph glyph-name="uni041D" unicode="&#x041D;" d="M182 667L182 407L468 407L468 667L570 667L570 0L468 0L468 311L182 311L182 0L80 0L80 667L182 667Z"  horiz-adv-x="650" vert-adv-y="1000"  />

      
      <glyph glyph-name="uni041E" unicode="&#x041E;" d="M147 580Q147 580 196.50 629.50Q246 679 395 679Q544 679 643 580Q742 481 742 333Q742 185 643 86Q544-13 395-13Q246-13 147 86Q48 185 48 333Q48 481 147 580M219 151.50Q219 151.50 253.50 116.25Q288 81 395 81Q502 81 571 151.50Q640 222 640 333Q640 444 571 514.50Q502 585 395 585Q288 585 219 514.50Q150 444 150 333Q150 222 219 151.50Z"  horiz-adv-x="790" vert-adv-y="1000"  />

      
      <glyph glyph-name="uni041F" unicode="&#x041F;" d="M80 667L570 667L570 0L468 0L468 571L182 571L182 0L80 0L80 667Z"  horiz-adv-x="650" vert-adv-y="1000"  />

      
      <glyph glyph-name="uni0420" unicode="&#x0420;" d="M80 667L227 667Q319 667 373 631Q413 604 434.50 560.50Q456 517 456 469Q456 379 391 323Q330 271 228 271L182 271L182 0L80 0L80 667M182 573L182 365L228 365Q292 365 325 393.50Q358 422 358 470Q358 487 353.50 502Q349 517 336.50 534.50Q324 552 296 562.50Q268 573 227 573L182 573Z"  horiz-adv-x="480" vert-adv-y="1000"  />

      
      <glyph glyph-name="uni0421" unicode="&#x0421;" d="M574 631L574 511Q492 585 393 585Q285 585 217.50 513.50Q150 442 150 331Q150 224 219 152.50Q288 81 394 81Q493 81 574 158L574 37Q490-13 391-13Q252-13 155 79Q48 179 48 331Q48 491 155 592Q247 679 396 679Q499 679 574 631Z"  horiz-adv-x="620" vert-adv-y="1000"  />

      
      <glyph glyph-name="uni0422" unicode="&#x0422;" d="M418 571L265 571L265 0L163 0L163 571L10 571L10 667L418 667L418 571Z"  horiz-adv-x="428" vert-adv-y="1000"  />

      
      <glyph glyph-name="uni0423" unicode="&#x0423;" d="M6 667L130 667L305 321L458 667L564 667L263 0L157 0L247 199L6 667Z"  horiz-adv-x="570" vert-adv-y="1000"  />

      
      <glyph glyph-name="uni0424" unicode="&#x0424;" d="M362 0L362 94L344 94Q196 94 122 166.50Q48 239 48 354Q48 469 122 541.50Q196 614 344 614L362 614L362 694L464 694L464 614L482 614Q630 614 704 541.50Q778 469 778 354Q778 239 704 166.50Q630 94 482 94L464 94L464 0L362 0M362 188L362 520L342 520Q246 520 198 474.50Q150 429 150 354Q150 279 198 233.50Q246 188 342 188L362 188M464 520L464 188L484 188Q580 188 628 233.50Q676 279 676 354Q676 429 628 474.50Q580 520 484 520L464 520Z"  horiz-adv-x="826" vert-adv-y="1000"  />

      
      <glyph glyph-name="uni0425" unicode="&#x0425;" d="M10 0L220 348L36 667L150 667L280 441L413 667L527 667L335 348L536 0L422 0L276 255L124 0L10 0Z"  horiz-adv-x="546" vert-adv-y="1000"  />

      
      <glyph glyph-name="uni0426" unicode="&#x0426;" d="M80 0L80 667L182 667L182 96L458 96L458 667L560 667L560 96L646 96L646-150L550-150L550 0L80 0Z"  horiz-adv-x="660" vert-adv-y="1000"  />

      
      <glyph glyph-name="uni0427" unicode="&#x0427;" d="M424 0L424 274Q333 267 288 267Q177 267 125 308Q60 359 60 470L60 667L162 667L162 485Q162 410 198 382Q225 361 304 361Q361 361 424 368L424 667L526 667L526 0L424 0Z"  horiz-adv-x="606" vert-adv-y="1000"  />

      
      <glyph glyph-name="uni0428" unicode="&#x0428;" d="M80 0L80 667L182 667L182 96L418 96L418 667L520 667L520 96L756 96L756 667L858 667L858 0L80 0Z"  horiz-adv-x="938" vert-adv-y="1000"  />

      
      <glyph glyph-name="uni0429" unicode="&#x0429;" d="M80 0L80 667L182 667L182 96L418 96L418 667L520 667L520 96L756 96L756 667L858 667L858 96L944 96L944-150L848-150L848 0L80 0Z"  horiz-adv-x="958" vert-adv-y="1000"  />

      
      <glyph glyph-name="uni042A" unicode="&#x042A;" d="M160 0L160 571L10 571L10 667L262 667L262 398L338 398Q445 398 505 345Q568 290 568 198Q568 150 546.50 106.50Q525 63 485 36Q431 0 339 0L160 0M262 302L262 96L334 96Q468 96 468 197Q468 241 438.50 271.50Q409 302 336 302L262 302Z"  horiz-adv-x="592" vert-adv-y="1000"  />

      
      <glyph glyph-name="uni042B" unicode="&#x042B;" d="M80 0L80 667L182 667L182 398L258 398Q365 398 425 345Q488 290 488 198Q488 150 466.50 106.50Q445 63 405 36Q351 0 259 0L80 0M182 302L182 96L254 96Q388 96 388 197Q388 241 358.50 271.50Q329 302 256 302L182 302M558 667L660 667L660 0L558 0L558 667Z"  horiz-adv-x="740" vert-adv-y="1000"  />

      
      <glyph glyph-name="uni042C" unicode="&#x042C;" d="M80 0L80 667L182 667L182 398L258 398Q365 398 425 345Q488 290 488 198Q488 150 466.50 106.50Q445 63 405 36Q351 0 259 0L80 0M182 302L182 96L254 96Q388 96 388 197Q388 241 358.50 271.50Q329 302 256 302L182 302Z"  horiz-adv-x="512" vert-adv-y="1000"  />

      
      <glyph glyph-name="uni042D" unicode="&#x042D;" d="M48 511L48 631Q124 679 238 679Q386 679 475 592Q574 497 574 331Q574 177 475 79Q382-13 238-13Q133-13 48 37L48 158Q129 81 231 81Q345 81 411 152Q464 209 469 294L138 294L138 390L466 390Q456 468 405 521Q344 585 237 585Q133 585 48 511Z"  horiz-adv-x="622" vert-adv-y="1000"  />

      
      <glyph glyph-name="uni042E" unicode="&#x042E;" d="M182 402L282 402Q299 506 371 580Q468 679 615 679Q761 679 856.50 580Q952 481 952 333Q952 185 856 86Q760-13 615-13Q449-13 354 104Q285 190 282 306L182 306L182 0L80 0L80 667L182 667L182 402M446 152Q446 152 479 116.50Q512 81 615 81Q718 81 784 152Q850 223 850 333Q850 443 784 514Q718 585 615 585Q512 585 446 514Q380 443 380 333Q380 223 446 152Z"  horiz-adv-x="1000" vert-adv-y="1000"  />

      
      <glyph glyph-name="uni042F" unicode="&#x042F;" d="M20 0L218 278Q159 285 115 323Q58 373 58 465Q58 549 109 604Q136 633 173 648Q210 663 233 665Q256 667 290 667L454 667L454 0L352 0L352 267L328 267L146 0L20 0M352 573L302 573Q220 573 188 542Q156 512 156 465Q156 411 194 385Q230 361 296 361L352 361L352 573Z"  horiz-adv-x="534" vert-adv-y="1000"  />

      
      <glyph glyph-name="uni0430" unicode="&#x0430;" d="M370 372L370 421L468 421L468 0L370 0L370 44Q321-13 244-13Q151-13 95.50 53Q40 119 40 211Q40 311 99.50 371.50Q159 432 245 432Q324 432 370 372M257 344Q205 344 172.50 305Q140 266 140 209Q140 153 172.50 114Q205 75 257 75Q307 75 341.50 110Q376 145 376 208Q376 273 341.50 308.50Q307 344 257 344Z"  horiz-adv-x="530" vert-adv-y="1000"  />

      
      <glyph glyph-name="uni0431" unicode="&#x0431;" d="M380 710L480 710Q469 658 434 620Q399 582 348 568L282 550Q256 543 242 538Q228 533 207.50 519.50Q187 506 173 487Q140 443 138 373L139 373Q183 432 282 432Q371 432 429 372Q490 309 490 212Q490 114 425.50 50.50Q361-13 265-13Q169-13 111 43Q79 73 62 117Q45 161 42.50 189.50Q40 218 40 259Q40 455 104 548Q152 619 230 638L300 655Q369 672 380 710M174 111.50Q174 111.50 191 93.25Q208 75 265 75Q322 75 356 111.50Q390 148 390 209Q390 276 353.50 310Q317 344 265 344Q213 344 176.50 310Q140 276 140 209Q140 148 174 111.50Z"  horiz-adv-x="530" vert-adv-y="1000"  />

      
      <glyph glyph-name="uni0432" unicode="&#x0432;" d="M62 421L227 421Q290 421 323 396Q362 365 362 315Q362 258 312 233Q344 227 369 205Q402 175 402 124Q402 63 356 28Q318 0 259 0L62 0L62 421M160 257L210 257Q236 257 249 266Q268 278 268 300Q268 321 251 333Q239 341 208 341L160 341L160 257M160 80L233 80Q266 80 284 92Q304 105 304 129Q304 155 285 166Q268 177 236 177L160 177L160 80Z"  horiz-adv-x="442" vert-adv-y="1000"  />

      
      <glyph glyph-name="uni0433" unicode="&#x0433;" d="M62 0L62 421L320 421L320 331L160 331L160 0L62 0Z"  horiz-adv-x="328" vert-adv-y="1000"  />

      
      <glyph glyph-name="uni0434" unicode="&#x0434;" d="M98 421L414 421L414 90L478 90L478-120L388-120L388 0L94 0L94-120L4-120L4 90Q55 93 81 145Q98 182 98 256L98 421M316 90L316 331L192 331L192 219Q192 128 143 90L316 90Z"  horiz-adv-x="486" vert-adv-y="1000"  />

      
      <glyph glyph-name="uni0435" unicode="&#x0435;" d="M364 156L446 110Q423 66 391 38Q333-13 250-13Q164-13 102 44Q40 101 40 208Q40 308 96 370Q152 432 245 432Q349 432 403 355Q442 299 442 202L442 187L140 187Q142 133 176.50 104Q211 75 254 75Q293 75 321 98Q349 119 364 156M147 267L342 267Q334 302 307.50 323Q281 344 245 344Q209 344 183 323Q157 302 147 267Z"  horiz-adv-x="486" vert-adv-y="1000"  />

      
      <glyph glyph-name="uni0436" unicode="&#x0436;" d="M263 421L361 421L361 265L488 421L606 421L443 229L622 0L500 0L373 169L361 155L361 0L263 0L263 155L251 169L124 0L2 0L181 229L18 421L136 421L263 265L263 421Z"  horiz-adv-x="624" vert-adv-y="1000"  />

      
      <glyph glyph-name="uni0437" unicode="&#x0437;" d="M127 312L64 367Q87 393 118 409Q163 432 218 432Q287 432 327 402Q370 369 370 322Q370 259 312 233Q342 228 367 206Q400 175 400 132Q400 98 384 68Q368 38 341 20Q292-13 217-13Q146-13 96 22Q63 45 40 87L118 127Q129 101 151 85Q176 67 212 67Q253 67 275 81Q300 98 300 129Q300 157 280 170Q263 181 224 181L173 181L173 261L217 261Q245 261 259 271Q276 283 276 305Q276 328 258 341Q243 352 213 352Q182 352 159 339Q141 330 127 312Z"  horiz-adv-x="440" vert-adv-y="1000"  />

      
      <glyph glyph-name="uni0438" unicode="&#x0438;" d="M62 421L160 421L160 182L448 459L448 0L350 0L350 245L62-32L62 421Z"  horiz-adv-x="510" vert-adv-y="1000"  />

      
      <glyph glyph-name="uni0439" unicode="&#x0439;" d="M62 421L160 421L160 182L448 459L448 0L350 0L350 245L62-32L62 421M94 603L174 626Q193 561 256 561Q318 561 338 626L418 603Q402 546 353.50 515.50Q305 485 256 485Q207 485 158.50 515.50Q110 546 94 603Z"  horiz-adv-x="510" vert-adv-y="1000"  />

      
      <glyph glyph-name="uni043A" unicode="&#x043A;" d="M62 421L160 421L160 271L300 421L430 421L246 237L440 0L316 0L176 173L160 157L160 0L62 0L62 421Z"  horiz-adv-x="442" vert-adv-y="1000"  />

      
      <glyph glyph-name="uni043B" unicode="&#x043B;" d="M408 421L408 0L310 0L310 331L186 331L186 164Q186 86 146 43Q95-14 8 0L8 90Q51 80 77 109Q92 127 92 164L92 421L408 421Z"  horiz-adv-x="470" vert-adv-y="1000"  />

      
      <glyph glyph-name="uni043C" unicode="&#x043C;" d="M14 0L116 459L290 138L464 459L566 0L466 0L424 211L290-32L156 211L114 0L14 0Z"  horiz-adv-x="580" vert-adv-y="1000"  />

      
      <glyph glyph-name="uni043D" unicode="&#x043D;" d="M62 0L62 421L160 421L160 265L334 265L334 421L432 421L432 0L334 0L334 175L160 175L160 0L62 0Z"  horiz-adv-x="494" vert-adv-y="1000"  />

      
      <glyph glyph-name="uni043E" unicode="&#x043E;" d="M104.50 369.50Q104.50 369.50 136.75 400.75Q169 432 265 432Q361 432 425.50 369.50Q490 307 490 210Q490 114 425.50 50.50Q361-13 265-13Q169-13 104.50 50.50Q40 114 40 210Q40 307 104.50 369.50M174 111.50Q174 111.50 191 93.25Q208 75 265 75Q322 75 356 111.50Q390 148 390 209Q390 276 353.50 310Q317 344 265 344Q213 344 176.50 310Q140 276 140 209Q140 148 174 111.50Z"  horiz-adv-x="530" vert-adv-y="1000"  />

      
      <glyph glyph-name="uni043F" unicode="&#x043F;" d="M62 421L428 421L428 0L330 0L330 331L160 331L160 0L62 0L62 421Z"  horiz-adv-x="490" vert-adv-y="1000"  />

      
      <glyph glyph-name="uni0440" unicode="&#x0440;" d="M160 49L160-229L62-229L62 421L160 421L160 375Q208 432 285 432Q371 432 430.50 371.50Q490 311 490 213Q490 112 428 49.50Q366-13 286-13Q211-13 160 49M273 344Q223 344 188.50 308.50Q154 273 154 208Q154 145 188.50 110Q223 75 273 75Q325 75 357.50 114Q390 153 390 209Q390 266 357.50 305Q325 344 273 344Z"  horiz-adv-x="530" vert-adv-y="1000"  />

      
      <glyph glyph-name="uni0441" unicode="&#x0441;" d="M388 402L388 273Q347 344 266 344Q215 344 177.50 308Q140 272 140 210Q140 153 174.50 114Q209 75 265 75Q302 75 335 94Q368 113 388 147L388 18Q334-13 272-13Q163-13 100 51Q40 113 40 209Q40 310 108 375Q168 432 269 432Q338 432 388 402Z"  horiz-adv-x="420" vert-adv-y="1000"  />

      
      <glyph glyph-name="uni0442" unicode="&#x0442;" d="M352 331L229 331L229 0L131 0L131 331L8 331L8 421L352 421L352 331Z"  horiz-adv-x="360" vert-adv-y="1000"  />

      
      <glyph glyph-name="uni0443" unicode="&#x0443;" d="M31-229L193 78L6 421L124 421L248 184L366 421L476 421L141-229L31-229Z"  horiz-adv-x="482" vert-adv-y="1000"  />

      
      <glyph glyph-name="uni0444" unicode="&#x0444;" d="M286-229L286-7Q178-8 113 48Q42 108 42 211Q42 313 112 373Q176 428 286 428L286 667L384 667L384 428Q494 428 558 373Q628 313 628 211Q628 108 557 48Q492-8 384-7L384-229L286-229M286 81L286 340Q228 340 194 318Q142 287 142 211Q142 140 191 106Q229 79 286 81M384 340L384 81Q441 79 479 106Q528 140 528 211Q528 287 476 318Q442 340 384 340Z"  horiz-adv-x="670" vert-adv-y="1000"  />

      
      <glyph glyph-name="uni0445" unicode="&#x0445;" d="M6 0L192 228L42 421L158 421L251 298L345 421L465 421L310 228L490 0L372 0L251 157L126 0L6 0Z"  horiz-adv-x="496" vert-adv-y="1000"  />

      
      <glyph glyph-name="uni0446" unicode="&#x0446;" d="M62 0L62 421L160 421L160 90L326 90L326 421L424 421L424 90L494 90L494-120L404-120L404 0L62 0Z"  horiz-adv-x="502" vert-adv-y="1000"  />

      
      <glyph glyph-name="uni0447" unicode="&#x0447;" d="M290 0L290 163Q245 154 204 154Q132 154 93 185Q52 218 52 286L52 421L150 421L150 306Q150 263 175 248Q192 238 224 238Q260 238 290 249L290 421L388 421L388 0L290 0Z"  horiz-adv-x="450" vert-adv-y="1000"  />

      
      <glyph glyph-name="uni0448" unicode="&#x0448;" d="M62 0L62 421L160 421L160 90L300 90L300 421L398 421L398 90L538 90L538 421L636 421L636 0L62 0Z"  horiz-adv-x="698" vert-adv-y="1000"  />

      
      <glyph glyph-name="uni0449" unicode="&#x0449;" d="M62 0L62 421L160 421L160 90L300 90L300 421L398 421L398 90L538 90L538 421L636 421L636 90L706 90L706-120L616-120L616 0L62 0Z"  horiz-adv-x="714" vert-adv-y="1000"  />

      
      <glyph glyph-name="uni044A" unicode="&#x044A;" d="M98 0L98 331L8 331L8 421L196 421L196 272L252 272Q279 272 296 270.50Q313 269 337 259Q361 249 379 229Q412 192 412 137Q412 74 374 36Q357 19 333.50 10.50Q310 2 294.50 1Q279 0 251 0L98 0M196 84L241 84Q277 84 292 93Q314 109 314 136Q314 164 293 178Q277 188 242 188L196 188L196 84Z"  horiz-adv-x="436" vert-adv-y="1000"  />

      
      <glyph glyph-name="uni044B" unicode="&#x044B;" d="M62 0L62 421L160 421L160 272L216 272Q243 272 260 270.50Q277 269 301 259Q325 249 343 229Q376 192 376 137Q376 74 338 36Q321 19 297.50 10.50Q274 2 258.50 1Q243 0 215 0L62 0M160 84L205 84Q241 84 256 93Q278 109 278 136Q278 164 257 178Q241 188 206 188L160 188L160 84M420 0L420 421L518 421L518 0L420 0Z"  horiz-adv-x="580" vert-adv-y="1000"  />

      
      <glyph glyph-name="uni044C" unicode="&#x044C;" d="M62 0L62 421L160 421L160 272L216 272Q243 272 260 270.50Q277 269 301 259Q325 249 343 229Q376 192 376 137Q376 74 338 36Q321 19 297.50 10.50Q274 2 258.50 1Q243 0 215 0L62 0M160 84L205 84Q241 84 256 93Q278 109 278 136Q278 164 257 178Q241 188 206 188L160 188L160 84Z"  horiz-adv-x="400" vert-adv-y="1000"  />

      
      <glyph glyph-name="uni044D" unicode="&#x044D;" d="M40 317L40 410Q92 432 154 432Q263 432 325.50 369.50Q388 307 388 208Q388 110 325.50 48.50Q263-13 165-13Q91-13 40 11L40 104Q95 75 158 75Q204 75 239.50 100.50Q275 126 281 172L86 172L86 262L278 262Q268 301 233.50 322.50Q199 344 157 344Q97 344 40 317Z"  horiz-adv-x="428" vert-adv-y="1000"  />

      
      <glyph glyph-name="uni044E" unicode="&#x044E;" d="M160 265L227 265Q237 324 282 370Q344 432 439 432Q533 432 596.50 369.50Q660 307 660 210Q660 114 596.50 50.50Q533-13 439-13Q339-13 277 54Q231 104 225 175L160 175L160 0L62 0L62 421L160 421L160 265M525 310Q525 310 507.50 327Q490 344 439 344Q388 344 353 310Q318 276 318 209Q318 142 353 108.50Q388 75 439 75Q490 75 525 108.50Q560 142 560 209Q560 276 525 310Z"  horiz-adv-x="700" vert-adv-y="1000"  />

      
      <glyph glyph-name="uni044F" unicode="&#x044F;" d="M8 0L140 167Q101 173 73 199Q38 233 38 286Q38 346 77 383Q117 421 199 421L356 421L356 0L258 0L258 155L238 155L123 0L8 0M258 235L258 337L201 337Q166 337 150 328Q126 313 126 286Q126 259 146 245Q161 235 200 235L258 235Z"  horiz-adv-x="418" vert-adv-y="1000"  />

      
      <glyph glyph-name="uni0451" unicode="&#x0451;" d="M366 156L448 110Q428 70 393 38Q335-13 251-13Q154-13 97 48Q40 109 40 208Q40 308 96 370Q152 432 245 432Q351 432 405 355Q444 299 444 202L444 187L142 187Q143 136 175 105.50Q207 75 256 75Q295 75 323 98Q352 122 366 156M149 267L344 267Q336 302 309.50 323Q283 344 247 344Q211 344 185 323Q159 302 149 267M120 503Q120 503 111 512Q102 521 102 547Q102 573 120 591Q138 609 164 609Q190 609 208 591Q226 573 226 547Q226 521 208 503Q190 485 164 485Q138 485 120 503M300 503Q300 503 291 512Q282 521 282 547Q282 573 300 591Q318 609 344 609Q370 609 388 591Q406 573 406 547Q406 521 388 503Q370 485 344 485Q318 485 300 503Z"  horiz-adv-x="488" vert-adv-y="1000"  />

      
      <glyph glyph-name="uni0452" unicode="&#x0452;" d="M62 0L62 552L-10 552L-10 628L62 628L62 729L160 729L160 628L360 628L360 552L160 552L160 385Q206 432 273 432Q357 432 397 375Q424 336 424 258L424-90Q424-173 380-207Q346-234 290-234Q248-234 224-225L224-137Q246-146 271-146Q304-146 317-124Q326-109 326-64L326 249Q326 301 307 322Q287 344 252 344Q204 344 180 309Q160 280 160 203L160 0L62 0Z"  horiz-adv-x="486" vert-adv-y="1000"  />

      
      <glyph glyph-name="uni0453" unicode="&#x0453;" d="M62 0L62 421L320 421L320 331L160 331L160 0L62 0M265 675L355 629L199 485L145 519L265 675Z"  horiz-adv-x="328" vert-adv-y="1000"  />

      
      <glyph glyph-name="uni0454" unicode="&#x0454;" d="M388 404L388 300Q340 344 273 344Q230 344 195 322.50Q160 301 150 262L342 262L342 172L147 172Q153 127 189 101Q225 75 273 75Q341 75 388 121L388 17Q341-13 268-13Q162-13 100 51Q40 111 40 209Q40 313 108 375Q168 432 269 432Q336 432 388 404Z"  horiz-adv-x="428" vert-adv-y="1000"  />

      
      <glyph glyph-name="uni0455" unicode="&#x0455;" d="M307 349L226 306Q212 344 179 344Q167 344 157 337.50Q147 331 147 317Q147 313 148 309Q149 305 151 301.50Q153 298 155 295.50Q157 293 161 290Q165 287 167.50 285Q170 283 175.50 280Q181 277 184 276Q187 275 193.50 271.50Q200 268 203 267Q258 241 283 224Q334 187 334 130Q334 70 289.50 28.50Q245-13 180-13Q169-13 155.50-10.50Q142-8 117 0.50Q92 9 69.50 32.50Q47 56 34 91L116 129Q124 106 141.50 90.50Q159 75 185 75Q207 75 220.50 87.50Q234 100 234 120Q234 134 226 145.50Q218 157 210.50 161.50Q203 166 189 173Q111 210 105 214Q55 247 55 306Q55 364 92.50 398Q130 432 187 432Q271 432 307 349Z"  horiz-adv-x="360" vert-adv-y="1000"  />

      
      <glyph glyph-name="uni0456" unicode="&#x0456;" d="M62 421L160 421L160 0L62 0L62 421M66 550Q66 550 57 559Q48 568 48 595Q48 622 66 640Q84 658 111 658Q138 658 156 640Q174 622 174 595Q174 568 156 550Q138 532 111 532Q84 532 66 550Z"  horiz-adv-x="222" vert-adv-y="1000"  />

      
      <glyph glyph-name="uni0457" unicode="&#x0457;" d="M62 421L160 421L160 0L62 0L62 421M14 513Q14 513 7 520Q0 527 0 547Q0 567 14 581Q28 595 48 595Q68 595 82 581Q96 567 96 547Q96 527 82 513Q68 499 48 499Q28 499 14 513M140 513Q140 513 133 520Q126 527 126 547Q126 567 140 581Q154 595 174 595Q194 595 208 581Q222 567 222 547Q222 527 208 513Q194 499 174 499Q154 499 140 513Z"  horiz-adv-x="222" vert-adv-y="1000"  />

      
      <glyph glyph-name="uni0458" unicode="&#x0458;" d="M62 421L160 421L160-229L62-229L62 421M66 550Q66 550 57 559Q48 568 48 595Q48 622 66 640Q84 658 111 658Q138 658 156 640Q174 622 174 595Q174 568 156 550Q138 532 111 532Q84 532 66 550Z"  horiz-adv-x="222" vert-adv-y="1000"  />

      
      <glyph glyph-name="uni0459" unicode="&#x0459;" d="M408 421L408 272L464 272Q491 272 508 270.50Q525 269 549 259Q573 249 591 229Q624 192 624 137Q624 74 586 36Q569 19 545.50 10.50Q522 2 506.50 1Q491 0 463 0L310 0L310 331L186 331L186 164Q186 86 146 43Q104-2 33-2Q24-2 8 0L8 90Q20 88 27 88Q59 88 77 109Q92 127 92 164L92 421L408 421M408 84L453 84Q489 84 504 93Q526 109 526 136Q526 164 505 178Q489 188 454 188L408 188L408 84Z"  horiz-adv-x="648" vert-adv-y="1000"  />

      
      <glyph glyph-name="uni045A" unicode="&#x045A;" d="M62 0L62 421L160 421L160 272L334 272L334 421L432 421L432 272L488 272Q515 272 532 270.50Q549 269 573 259Q597 249 615 229Q648 192 648 137Q648 74 610 36Q593 19 569.50 10.50Q546 2 530.50 1Q515 0 487 0L334 0L334 188L160 188L160 0L62 0M432 84L477 84Q513 84 528 93Q550 109 550 136Q550 164 529 178Q513 188 478 188L432 188L432 84Z"  horiz-adv-x="672" vert-adv-y="1000"  />

      
      <glyph glyph-name="uni045B" unicode="&#x045B;" d="M62 0L62 552L-10 552L-10 628L62 628L62 729L160 729L160 628L360 628L360 552L160 552L160 385Q206 432 273 432Q357 432 397 375Q424 336 424 258L424 0L326 0L326 249Q326 301 307 322Q287 344 252 344Q204 344 180 309Q160 280 160 203L160 0L62 0Z"  horiz-adv-x="486" vert-adv-y="1000"  />

      
      <glyph glyph-name="uni045C" unicode="&#x045C;" d="M62 421L160 421L160 271L300 421L430 421L246 237L440 0L316 0L176 173L160 157L160 0L62 0L62 421M296 675L386 629L230 485L176 519L296 675Z"  horiz-adv-x="442" vert-adv-y="1000"  />

      
      <glyph glyph-name="uni045E" unicode="&#x045E;" d="M31-229L193 78L6 421L124 421L248 184L366 421L476 421L141-229L31-229M79 603L159 626Q178 561 241 561Q303 561 323 626L403 603Q387 546 338.50 515.50Q290 485 241 485Q192 485 143.50 515.50Q95 546 79 603Z"  horiz-adv-x="482" vert-adv-y="1000"  />

      
      <glyph glyph-name="uni045F" unicode="&#x045F;" d="M62 0L62 421L160 421L160 90L326 90L326 421L424 421L424 0L288 0L288-140L198-140L198 0L62 0Z"  horiz-adv-x="486" vert-adv-y="1000"  />

      
      <glyph glyph-name="uni0490" unicode="&#x0490;" d="M80 0L80 667L318 667L318 817L414 817L414 571L182 571L182 0L80 0Z"  horiz-adv-x="428" vert-adv-y="1000"  />

      
      <glyph glyph-name="uni0491" unicode="&#x0491;" d="M62 0L62 421L230 421L230 541L320 541L320 331L160 331L160 0L62 0Z"  horiz-adv-x="328" vert-adv-y="1000"  />

      
      <glyph glyph-name="uni2013" unicode="&#x2013;" d="M50 168L50 258L530 258L530 168L50 168Z"  horiz-adv-x="580" vert-adv-y="1000"  />

      
      <glyph glyph-name="uni2014" unicode="&#x2014;" d="M50 168L50 258L750 258L750 168L50 168Z"  horiz-adv-x="800" vert-adv-y="1000"  />

      
      <glyph glyph-name="uni2018" unicode="&#x2018;" d="M240 669L138 415L50 449L174 696L240 669Z"  horiz-adv-x="290" vert-adv-y="1000"  />

      
      <glyph glyph-name="uni2019" unicode="&#x2019;" d="M50 442L152 696L240 662L116 415L50 442Z"  horiz-adv-x="340" vert-adv-y="1000"  />

      
      <glyph glyph-name="uni201A" unicode="&#x201A;" d="M50-129L152 125L240 91L116-156L50-129Z"  horiz-adv-x="340" vert-adv-y="1000"  />

      
      <glyph glyph-name="uni201C" unicode="&#x201C;" d="M412 669L310 415L224 449L347 696L412 669M238 669L136 415L50 449L173 696L238 669Z"  horiz-adv-x="462" vert-adv-y="1000"  />

      
      <glyph glyph-name="uni201D" unicode="&#x201D;" d="M50 442L152 696L238 662L115 415L50 442M224 442L326 696L412 662L289 415L224 442Z"  horiz-adv-x="512" vert-adv-y="1000"  />

      
      <glyph glyph-name="uni201E" unicode="&#x201E;" d="M50-129L152 125L238 91L115-156L50-129M224-129L326 125L412 91L289-156L224-129Z"  horiz-adv-x="512" vert-adv-y="1000"  />

      
      <glyph glyph-name="uni2020" unicode="&#x2020;" d="M235 575L235 729L333 729L333 575L471 575L471 481L333 481L333-177L235-177L235 481L97 481L97 575L235 575Z"  horiz-adv-x="568" vert-adv-y="1000"  />

      
      <glyph glyph-name="uni2021" unicode="&#x2021;" d="M235 575L235 729L333 729L333 575L471 575L471 481L333 481L333 219L471 219L471 125L333 125L333-177L235-177L235 125L97 125L97 219L235 219L235 481L97 481L97 575L235 575Z"  horiz-adv-x="568" vert-adv-y="1000"  />

      
      <glyph glyph-name="uni2022" unicode="&#x2022;" d="M235 241Q235 241 214.50 261.50Q194 282 194 340Q194 398 235 439Q276 480 334 480Q392 480 433 439Q474 398 474 340Q474 282 433 241Q392 200 334 200Q276 200 235 241Z"  horiz-adv-x="668" vert-adv-y="1000"  />

      
      <glyph glyph-name="uni2026" unicode="&#x2026;" d="M97.50 5.50Q97.50 5.50 88.75 14.25Q80 23 80 48Q80 73 97.50 90.50Q115 108 140 108Q165 108 182.50 90.50Q200 73 200 48Q200 23 182.50 5.50Q165-12 140-12Q115-12 97.50 5.50M357.50 5.50Q357.50 5.50 348.75 14.25Q340 23 340 48Q340 73 357.50 90.50Q375 108 400 108Q425 108 442.50 90.50Q460 73 460 48Q460 23 442.50 5.50Q425-12 400-12Q375-12 357.50 5.50M617.50 5.50Q617.50 5.50 608.75 14.25Q600 23 600 48Q600 73 617.50 90.50Q635 108 660 108Q685 108 702.50 90.50Q720 73 720 48Q720 23 702.50 5.50Q685-12 660-12Q635-12 617.50 5.50Z"  horiz-adv-x="800" vert-adv-y="1000"  />

      
      <glyph glyph-name="uni2030" unicode="&#x2030;" d="M80.50 626.50Q80.50 626.50 104.25 649.75Q128 673 194 673Q260 673 307.50 626.50Q355 580 355 516Q355 452 307.50 405.50Q260 359 194 359Q128 359 80.50 405.50Q33 452 33 516Q33 580 80.50 626.50M133 457.50Q133 457.50 144 444.25Q155 431 194 431Q233 431 255 457.50Q277 484 277 516Q277 548 255 574.50Q233 601 194 601Q155 601 133 574.50Q111 548 111 516Q111 484 133 457.50M191 18L572 678L619 651L238-11L191 18M502.50 260.50Q502.50 260.50 526.25 283.75Q550 307 616 307Q682 307 729.50 260.50Q777 214 777 150Q777 86 729.50 39.50Q682-7 616-7Q550-7 502.50 39.50Q455 86 455 150Q455 214 502.50 260.50M555 91.50Q555 91.50 566 78.25Q577 65 616 65Q655 65 677 91.50Q699 118 699 150Q699 182 677 208.50Q655 235 616 235Q577 235 555 208.50Q533 182 533 150Q533 118 555 91.50M892.50 260.50Q892.50 260.50 916.25 283.75Q940 307 1006 307Q1072 307 1119.50 260.50Q1167 214 1167 150Q1167 86 1119.50 39.50Q1072-7 1006-7Q940-7 892.50 39.50Q845 86 845 150Q845 214 892.50 260.50M945 91.50Q945 91.50 956 78.25Q967 65 1006 65Q1045 65 1067 91.50Q1089 118 1089 150Q1089 182 1067 208.50Q1045 235 1006 235Q967 235 945 208.50Q923 182 923 150Q923 118 945 91.50Z"  horiz-adv-x="1200" vert-adv-y="1000"  />

      
      <glyph glyph-name="uni2039" unicode="&#x2039;" d="M140 217L270 48L205 1L40 217L205 433L270 386L140 217Z"  horiz-adv-x="324" vert-adv-y="1000"  />

      
      <glyph glyph-name="uni203A" unicode="&#x203A;" d="M184 217L54 386L119 433L284 217L119 1L54 48L184 217Z"  horiz-adv-x="324" vert-adv-y="1000"  />

      
      <glyph glyph-name="uni20AC" unicode="&#x20AC;" d="M524 637L524 543Q469 592 373 592Q297 592 253.50 551.50Q210 511 199 441L485 441L458 368L188 368Q187 360 187 337Q187 312 188 303L434 303L407 230L199 230Q210 155 255 115Q300 75 374 75Q468 75 524 125L524 29Q474-10 361-10Q139-10 101 230L23 230L50 303L93 303Q92 312 92 337Q92 359 93 368L23 368L50 441L100 441Q118 550 182.50 614Q247 678 361 678Q468 678 524 637Z"  horiz-adv-x="568" vert-adv-y="1000"  />

      
      <glyph glyph-name="uni2116" unicode="&#x2116;" d="M182 0L80 0L80 712L524 229L524 667L626 667L626-41L182 442L182 0M743.50 620.50Q743.50 620.50 767.25 643.75Q791 667 857 667Q923 667 970.50 620.50Q1018 574 1018 510Q1018 446 970.50 399.50Q923 353 857 353Q791 353 743.50 399.50Q696 446 696 510Q696 574 743.50 620.50M796 451.50Q796 451.50 807 438.25Q818 425 857 425Q896 425 918 451.50Q940 478 940 510Q940 542 918 568.50Q896 595 857 595Q818 595 796 568.50Q774 542 774 510Q774 478 796 451.50M716 203L716 283L998 283L998 203L716 203Z"  horiz-adv-x="1060" vert-adv-y="1000"  />

      
      <glyph glyph-name="uni2122" unicode="&#x2122;" d="M238 601L154 601L154 287L84 287L84 601L0 601L0 667L238 667L238 601M331 287L260 287L342 701L468 421L595 701L676 287L605 287L570 493L468 280L366 493L331 287Z"  horiz-adv-x="710" vert-adv-y="1000"  />

      

  </font>
</defs>
</svg>
