<svg width="16" height="12" viewBox="0 0 16 12" fill="none" xmlns="http://www.w3.org/2000/svg">
<path d="M8 0.36364C4.36364 0.36364 1.25818 2.62546 0 5.81819C1.25818 9.01091 4.36364 11.2727 8 11.2727C11.6364 11.2727 14.7418 9.01091 16 5.81819C14.7418 2.62546 11.6364 0.36364 8 0.36364ZM8 9.45455C5.99273 9.45455 4.36364 7.82546 4.36364 5.81819C4.36364 3.81091 5.99273 2.18182 8 2.18182C10.0073 2.18182 11.6364 3.81091 11.6364 5.81819C11.6364 7.82546 10.0073 9.45455 8 9.45455ZM8 3.63637C6.79273 3.63637 5.81818 4.61091 5.81818 5.81819C5.81818 7.02546 6.79273 8 8 8C9.20727 8 10.1818 7.02546 10.1818 5.81819C10.1818 4.61091 9.20727 3.63637 8 3.63637Z" fill="#F2F2F2"/>
</svg>
